<?xml version="1.0" encoding="UTF-8"?>
<svg version="1.1" xmlns="http://www.w3.org/2000/svg" width="777" height="980">
<path d="M0 0 C256.41 0 512.82 0 777 0 C777 323.4 777 646.8 777 980 C520.59 980 264.18 980 0 980 C0 656.6 0 333.2 0 0 Z " fill="#030303" transform="translate(0,0)"/>
<path d="M0 0 C2.27061031 0.01082884 4.54044699 -0.00001863 6.81103516 -0.01269531 C8.27848479 -0.01137518 9.74593395 -0.00881582 11.21337891 -0.00488281 C13.17090088 -0.00149902 13.17090088 -0.00149902 15.16796875 0.00195312 C19.08236114 0.27503829 22.16534873 1.05237713 25.87744141 2.26074219 C24.56864046 11.68410897 15.92513277 17.24995672 8.81494141 22.69824219 C-4.9451741 33.05645998 -19.534544 42.12815792 -34.12255859 51.26074219 C-30.44121162 52.89534648 -27.13431508 53.67077252 -23.14208984 54.15527344 C-21.98644531 54.30343506 -20.83080078 54.45159668 -19.64013672 54.60424805 C-18.41746094 54.75901611 -17.19478516 54.91378418 -15.93505859 55.07324219 C-1.30626439 57.05023319 12.36433656 59.91153339 25.90869141 65.95214844 C28.39822043 67.04950662 30.89222398 68.04482998 33.42822266 69.02636719 C62.23612567 80.49434495 88.98375159 97.6337827 112.87744141 117.26074219 C113.66634766 117.9065625 114.45525391 118.55238281 115.26806641 119.21777344 C119.27541886 122.60566874 122.72545002 126.24487399 126.11181641 130.24902344 C127.86288114 132.24415251 129.70667604 134.0547687 131.62744141 135.88574219 C151.91002328 155.97254625 169.87211397 185.49239715 177.24462891 213.06933594 C177.92098989 215.41154898 178.80092263 217.57930617 179.75244141 219.82324219 C184.39375144 231.25886538 187.19324122 243.12870337 189.62744141 255.19824219 C189.94346313 256.76070679 189.94346313 256.76070679 190.26586914 258.35473633 C192.7562872 271.13534549 193.11731847 283.5895283 193.12744141 296.57324219 C193.12844849 297.46713654 193.12945557 298.36103088 193.13049316 299.28201294 C193.12041088 312.50270053 192.63773953 325.28912566 189.87744141 338.26074219 C189.73822266 338.9698877 189.59900391 339.6790332 189.45556641 340.40966797 C182.00014973 378.16134384 164.21871071 413.82429885 140.17089844 443.64257812 C139.0420723 445.05478266 137.93980172 446.48813233 136.84228516 447.92480469 C125.52703205 462.45691901 111.81827199 475.51578821 96.87744141 486.26074219 C96.18875977 486.76186523 95.50007813 487.26298828 94.79052734 487.77929688 C77.38186932 500.416979 59.00661419 511.48782593 38.87744141 519.26074219 C38.169021 519.5569043 37.46060059 519.85306641 36.73071289 520.15820312 C19.63205614 527.23913865 1.1407241 531.48364324 -17.12255859 534.26074219 C-18.09225586 534.41027344 -19.06195313 534.55980469 -20.06103516 534.71386719 C-34.42823457 536.83489185 -48.68477507 537.54604129 -63.18505859 537.57324219 C-64.3282959 537.57862 -64.3282959 537.57862 -65.49462891 537.58410645 C-76.82974823 537.61287268 -87.88475325 536.70687739 -99.12255859 535.26074219 C-100.0701001 535.14577393 -101.0176416 535.03080566 -101.99389648 534.91235352 C-112.32662503 533.62600135 -122.47357407 531.6387872 -132.62255859 529.32324219 C-133.68410156 529.08250977 -134.74564453 528.84177734 -135.83935547 528.59375 C-145.17415897 526.39852607 -154.30381462 523.61582702 -163.12255859 519.82324219 C-164.10353516 519.40429688 -165.08451172 518.98535156 -166.09521484 518.55371094 C-167.09423828 518.12703125 -168.09326172 517.70035156 -169.12255859 517.26074219 C-172.22446952 515.9953417 -175.32653359 514.73042307 -178.43115234 513.47167969 C-181.12255859 512.26074219 -181.12255859 512.26074219 -183.53271484 510.79980469 C-186.61956882 508.96538468 -189.81552167 507.65656946 -193.12255859 506.26074219 C-210.82374683 497.74571562 -227.69832522 486.30076943 -242.06005859 472.88574219 C-243.08298122 471.93336595 -244.10642711 470.98155147 -245.13037109 470.03027344 C-245.88108887 469.331521 -245.88108887 469.331521 -246.64697266 468.61865234 C-248.87695364 466.56650902 -251.16000946 464.57514712 -253.43505859 462.57324219 C-257.7020189 458.73501952 -261.49260193 454.70103086 -265.12255859 450.26074219 C-265.78126953 449.45507812 -266.43998047 448.64941406 -267.11865234 447.81933594 C-269.14079605 445.31554742 -271.13762016 442.7940966 -273.12255859 440.26074219 C-273.61369141 439.638125 -274.10482422 439.01550781 -274.61083984 438.37402344 C-287.57537268 421.53839066 -299.46821783 402.52083325 -306.12255859 382.26074219 C-306.39068359 381.50535156 -306.65880859 380.74996094 -306.93505859 379.97167969 C-309.31070562 373.1664408 -311.19942746 366.20409516 -313.12255859 359.26074219 C-313.39197266 358.3390625 -313.66138672 357.41738281 -313.93896484 356.46777344 C-318.69279504 339.21958325 -319.39885718 321.91675199 -319.37255859 304.13574219 C-319.37178314 303.23400269 -319.37100769 302.33226318 -319.37020874 301.40319824 C-319.36375112 298.81130584 -319.34747986 296.21973512 -319.32568359 293.62792969 C-319.32129776 292.84338409 -319.31691193 292.0588385 -319.31239319 291.2505188 C-319.26688726 287.74198961 -318.98528387 284.6434577 -318.12255859 281.26074219 C-317.93197752 279.18092267 -317.74424079 277.10075414 -317.57861328 275.01879883 C-313.82577679 229.3400201 -297.5653208 186.07926121 -269.12255859 150.26074219 C-268.42001953 149.35195312 -267.71748047 148.44316406 -266.99365234 147.50683594 C-263.24734674 142.70481995 -259.32556152 138.32140514 -254.94677734 134.08886719 C-253.24944966 132.38790497 -251.74358434 130.63845192 -250.24755859 128.76074219 C-249.54630859 127.93574219 -248.84505859 127.11074219 -248.12255859 126.26074219 C-247.46255859 126.26074219 -246.80255859 126.26074219 -246.12255859 126.26074219 C-245.62755859 124.77574219 -245.62755859 124.77574219 -245.12255859 123.26074219 C-243.41552734 121.50683594 -243.41552734 121.50683594 -241.31005859 119.69824219 C-240.62298828 119.09882813 -239.93591797 118.49941406 -239.22802734 117.88183594 C-237.25700014 116.3642547 -235.38291598 115.2817126 -233.12255859 114.26074219 C-233.12255859 113.60074219 -233.12255859 112.94074219 -233.12255859 112.26074219 C-231.19895247 110.61150621 -229.27621814 109.08371305 -227.24755859 107.57324219 C-226.6482251 107.12190918 -226.0488916 106.67057617 -225.43139648 106.20556641 C-223.667245 104.8831006 -221.89566528 103.57116338 -220.12255859 102.26074219 C-219.33494141 101.6690625 -218.54732422 101.07738281 -217.73583984 100.46777344 C-197.65352709 85.86573274 -175.8914881 75.55186934 -152.6394043 67.18701172 C-146.90341945 65.07882104 -146.90341945 65.07882104 -141.62646484 62.04589844 C-140.99281006 61.612854 -140.35915527 61.17980957 -139.70629883 60.73364258 C-139.03928955 60.26821045 -138.37228027 59.80277832 -137.68505859 59.32324219 C-136.98131104 58.83525146 -136.27756348 58.34726074 -135.55249023 57.84448242 C-127.19820519 51.99357199 -119.25009006 45.65518686 -111.37255859 39.18261719 C-86.67600695 18.97375645 -59.34701159 7.98039173 -28.12255859 2.26074219 C-26.65157715 1.9781958 -26.65157715 1.9781958 -25.15087891 1.68994141 C-16.73416729 0.2119679 -8.51739035 -0.04836256 0 0 Z " fill="#FDFDFD" transform="translate(465.12255859375,28.7392578125)"/>
<path d="M0 0 C1.09699219 0.35191406 2.19398438 0.70382812 3.32421875 1.06640625 C4.18402344 1.30617188 5.04382813 1.5459375 5.9296875 1.79296875 C6.78175781 2.08945312 7.63382813 2.3859375 8.51171875 2.69140625 C9.5378125 3.04203125 10.56390625 3.39265625 11.62109375 3.75390625 C14.45149886 4.75708781 17.27167189 5.77988842 20.08984375 6.81640625 C28.3943971 9.84388497 36.29823849 12.63600909 45.125 13.67578125 C48.8741911 14.13355794 52.55778575 14.84031745 56.26171875 15.56640625 C72.09937561 18.5951667 87.80762301 20.20361661 103.9375 20.26953125 C105.09809937 20.2766362 106.25869873 20.28374115 107.45446777 20.2910614 C141.12838815 20.45029044 172.65427136 19.97460903 205.30859375 10.89013672 C209.60236235 9.71727603 213.92481235 8.69067793 218.26171875 7.69140625 C219.52886719 7.39492188 220.79601562 7.0984375 222.1015625 6.79296875 C232.81239746 4.37816232 232.81239746 4.37816232 237.32421875 5.06640625 C243.43159909 9.51674541 247.27581292 15.82279662 251.32421875 22.06640625 C251.78997314 22.78175537 252.25572754 23.49710449 252.7355957 24.23413086 C259.70601518 35.00659732 266.24087152 45.98449698 272.53515625 57.1640625 C274.43919549 60.54309972 276.40695099 63.87345113 278.421875 67.1875 C280.95761584 71.38926851 283.23960227 75.6555727 285.38671875 80.06640625 C286.06888741 81.45188349 286.75117886 82.83730027 287.43359375 84.22265625 C287.75650391 84.88136719 288.07941406 85.54007813 288.41210938 86.21875 C289.62775498 88.68127836 290.88450042 91.12231746 292.13671875 93.56640625 C293.57828429 96.43989474 294.8428874 99.29810739 295.94921875 102.31640625 C297.2109391 105.97397472 297.2109391 105.97397472 298.76171875 108.94140625 C300.04761957 111.5132079 301.10534984 114.0149613 302.13671875 116.69140625 C304.10849498 121.71943563 306.48409863 126.48504365 308.9375 131.29296875 C310.06629449 133.55055772 311.10621108 135.79979135 312.07421875 138.12890625 C313.2643768 141.17664439 313.2643768 141.17664439 315.32421875 144.06640625 C316.31421875 144.39640625 317.30421875 144.72640625 318.32421875 145.06640625 C319.37641247 119.51914277 315.59887472 95.73912536 307.97265625 71.37109375 C302.90218412 55.14947983 302.90218412 55.14947983 303.13671875 47.87890625 C303.16378906 46.77160156 303.19085937 45.66429687 303.21875 44.5234375 C303.27095703 43.30720703 303.27095703 43.30720703 303.32421875 42.06640625 C303.98421875 42.06640625 304.64421875 42.06640625 305.32421875 42.06640625 C305.32421875 41.40640625 305.32421875 40.74640625 305.32421875 40.06640625 C312.84650548 36.87410398 320.45628396 34.27160597 328.32421875 32.06640625 C329.89236328 31.61201172 329.89236328 31.61201172 331.4921875 31.1484375 C349.31063171 26.61399471 366.94894375 27.66203717 383.32421875 36.06640625 C383.32421875 36.72640625 383.32421875 37.38640625 383.32421875 38.06640625 C384.40123047 38.45119141 384.40123047 38.45119141 385.5 38.84375 C398.17330311 44.33025605 408.45835721 56.12309622 418.13671875 65.69140625 C418.86648926 66.40804443 419.59625977 67.12468262 420.34814453 67.86303711 C424.03064329 71.54002441 427.26681801 75.18559193 430.18554688 79.49194336 C431.9634416 81.95027163 434.14976411 83.96022335 436.32421875 86.06640625 C453.6232629 105.51019323 453.6232629 105.51019323 454.73828125 112.7578125 C454.32421875 115.06640625 454.32421875 115.06640625 452.99609375 116.47265625 C434.42992563 127.03876819 413.08196529 131.81567317 392.32421875 136.06640625 C391.56463867 136.22238281 390.80505859 136.37835937 390.02246094 136.5390625 C379.05604302 138.72545206 368.06882599 139.68384231 356.91699219 140.4206543 C355.84610352 140.49195557 354.77521484 140.56325684 353.671875 140.63671875 C352.71289307 140.69617676 351.75391113 140.75563477 350.76586914 140.81689453 C348.18797236 140.99062951 348.18797236 140.99062951 345.32421875 142.06640625 C345.44599563 143.98106992 345.44599563 143.98106992 346.32421875 146.06640625 C350.24691113 148.86197341 354.52113361 150.27021204 359.07421875 151.69140625 C366.2054171 153.9476046 366.2054171 153.9476046 367.32421875 155.06640625 C368.73222834 155.39734867 370.15168616 155.67984381 371.57421875 155.94140625 C372.92 156.20630859 372.92 156.20630859 374.29296875 156.4765625 C376.41614267 156.88970588 378.54134745 157.29248506 380.66796875 157.6875 C387.19812946 159.01300281 391.79595859 160.03500607 396.32421875 165.06640625 C404.60116672 189.89725016 388.7368109 223.23855868 377.98046875 244.9375 C375.10945195 250.58035673 371.9175903 255.85211167 368.32421875 261.06640625 C367.87046875 261.87851562 367.41671875 262.690625 366.94921875 263.52734375 C365.06508279 266.47130619 362.82062503 268.62716958 360.32421875 271.06640625 C358.99285267 272.71804131 357.68079207 274.38539219 356.38671875 276.06640625 C348.73311329 285.52462436 339.45357083 294.29364339 329.32421875 301.06640625 C328.43992187 301.66066406 327.555625 302.25492188 326.64453125 302.8671875 C319.23085806 307.71922565 313.35474883 311.32609515 304.33984375 311.5625 C302.32421875 311.06640625 302.32421875 311.06640625 300.59375 309.390625 C297.31235981 303.3831568 298.69151731 295.88414894 300.53125 289.5625 C302.8126424 282.40300232 305.40961824 275.32459217 308.5625 268.5 C309.73042157 264.76864031 309.98270069 260.94967053 310.32421875 257.06640625 C309.94724854 257.52901855 309.57027832 257.99163086 309.18188477 258.46826172 C296.08709138 274.51531405 296.08709138 274.51531405 289.25390625 281.94921875 C287.45130747 283.92696883 285.73182386 285.95459442 284.01171875 288.00390625 C261.87525988 313.28100688 229.70960463 333.55843143 198.32421875 345.06640625 C197.46828125 345.39125 196.61234375 345.71609375 195.73046875 346.05078125 C192.94013531 347.09314719 190.13832282 348.09008443 187.32421875 349.06640625 C186.40769531 349.38480469 185.49117188 349.70320313 184.546875 350.03125 C177.48175637 352.34296424 170.32537619 354.07214037 163.07421875 355.69140625 C161.71925293 356.0006604 161.71925293 356.0006604 160.33691406 356.31616211 C145.605402 359.50712672 130.91756792 360.47239611 115.88671875 360.44140625 C115.06737854 360.44219177 114.24803833 360.44297729 113.40386963 360.44378662 C99.69347539 360.42815864 86.58190043 359.25014245 73.10351562 356.59643555 C70.14087787 356.031442 67.17100891 355.56043192 64.19140625 355.09375 C59.02141152 354.23862569 54.07804516 353.04917439 49.07421875 351.50390625 C48.23922852 351.24851074 47.40423828 350.99311523 46.54394531 350.72998047 C30.59914538 345.74027185 14.94446704 339.9714439 0.20751953 332.0625 C-1.70777231 331.04948591 -3.64203218 330.08572844 -5.5859375 329.12890625 C-14.49470282 324.67774518 -22.82094579 319.51685855 -31.11328125 314.00390625 C-32.10779297 313.34326172 -33.10230469 312.68261719 -34.12695312 312.00195312 C-39.77824292 308.18780503 -45.18794921 304.1813975 -50.4675293 299.86694336 C-52.63300053 298.10128826 -54.83231559 296.38976968 -57.05078125 294.69140625 C-60.73828864 291.82553598 -64.37900762 288.90502947 -67.98828125 285.94140625 C-68.97441406 285.13445312 -69.96054688 284.3275 -70.9765625 283.49609375 C-73.54775981 281.18164407 -75.55089372 278.78354966 -77.67578125 276.06640625 C-78.68640625 275.26203125 -79.69703125 274.45765625 -80.73828125 273.62890625 C-85.15748025 269.99576867 -88.43482614 265.46206165 -91.85571289 260.91625977 C-93.99382486 258.09612102 -95.70356197 256.04788577 -98.67578125 254.06640625 C-94.66725676 266.11775801 -90.27952574 277.6647281 -84.67578125 289.06640625 C-79.82574467 298.96618679 -79.82574467 298.96618679 -80.67578125 304.06640625 C-84.62708404 309.18216582 -92.27771672 310.47261818 -98.3359375 311.53125 C-109.47171165 312.2548106 -117.72190493 303.74632652 -125.5703125 296.859375 C-137.41221639 286.28637527 -146.88319418 274.22296117 -155.67578125 261.06640625 C-156.60390625 259.70902344 -156.60390625 259.70902344 -157.55078125 258.32421875 C-161.99329211 251.64061982 -165.41266438 244.63400703 -168.65405273 237.31176758 C-169.43465268 235.59631294 -170.24751156 233.89550177 -171.07446289 232.2019043 C-174.93508139 224.18997826 -177.65313666 216.20031469 -179.98828125 207.62890625 C-180.33439453 206.40236328 -180.68050781 205.17582031 -181.03710938 203.91210938 C-183.49678405 195.09467909 -184.85659633 187.1421937 -184.86328125 178.00390625 C-184.87552734 177.11896484 -184.88777344 176.23402344 -184.90039062 175.32226562 C-184.91971666 166.73506256 -184.91971666 166.73506256 -182.67578125 163.06640625 C-176.79916292 158.82364593 -168.59925999 157.65920656 -161.67578125 156.06640625 C-152.75699071 153.98333272 -144.06053543 151.85567016 -135.67578125 148.06640625 C-135.67578125 147.40640625 -135.67578125 146.74640625 -135.67578125 146.06640625 C-144.11492967 142.1893237 -152.33057002 139.74495027 -161.42578125 137.94140625 C-162.66150879 137.68697754 -163.89723633 137.43254883 -165.17041016 137.17041016 C-168.66949956 136.45459329 -172.17143992 135.75599422 -175.67578125 135.06640625 C-176.90796387 134.82277344 -176.90796387 134.82277344 -178.16503906 134.57421875 C-182.66059911 133.6929809 -187.16569204 132.8691897 -191.67578125 132.06640625 C-194.5232393 131.55774528 -197.37047666 131.04792971 -200.21728516 130.53564453 C-202.13311349 130.19130767 -204.04942815 129.84966133 -205.96630859 129.51123047 C-211.27169075 128.56042087 -216.45996842 127.42474611 -221.67578125 126.06640625 C-222.99682044 125.74243634 -224.31844348 125.42083837 -225.640625 125.1015625 C-241.54156844 121.22818007 -241.54156844 121.22818007 -246.67578125 119.06640625 C-247.61328125 117.32421875 -247.61328125 117.32421875 -247.67578125 115.06640625 C-243.5627234 107.07465282 -237.41962324 99.94470813 -231.67578125 93.06640625 C-231.0430127 92.30626221 -231.0430127 92.30626221 -230.39746094 91.53076172 C-224.97439894 85.02660626 -219.45586593 78.62622535 -213.75 72.3671875 C-211.12663586 69.45727888 -208.5986341 66.47057538 -206.0859375 63.46484375 C-204.67578125 62.06640625 -204.67578125 62.06640625 -202.67578125 62.06640625 C-202.42828125 61.48890625 -202.18078125 60.91140625 -201.92578125 60.31640625 C-200.49278137 57.73700646 -198.89153449 56.00519033 -196.67578125 54.06640625 C-196.01578125 54.06640625 -195.35578125 54.06640625 -194.67578125 54.06640625 C-194.44890625 53.48890625 -194.22203125 52.91140625 -193.98828125 52.31640625 C-192.32729903 49.46900816 -190.36053564 47.94573432 -187.67578125 46.06640625 C-187.01578125 46.06640625 -186.35578125 46.06640625 -185.67578125 46.06640625 C-185.67578125 45.40640625 -185.67578125 44.74640625 -185.67578125 44.06640625 C-179.85673276 39.72351345 -173.37255088 35.89312242 -166.67578125 33.06640625 C-165.86109375 32.69386719 -165.04640625 32.32132813 -164.20703125 31.9375 C-144.00519885 24.14458885 -119.76369936 28.93417337 -100.36328125 36.83984375 C-95.76369399 38.93907398 -92.53843079 40.77243194 -89.67578125 45.06640625 C-88.07760232 53.32646785 -91.34018234 61.25652914 -93.96142578 68.95654297 C-97.42184694 79.17696665 -100.60111699 89.46523165 -102.67578125 100.06640625 C-102.84787109 100.87045898 -103.01996094 101.67451172 -103.19726562 102.50292969 C-104.97075532 111.63044821 -104.90405992 120.56419664 -104.80078125 129.81640625 C-104.79072323 131.39973387 -104.78160241 132.98306773 -104.7734375 134.56640625 C-104.7516662 138.39989713 -104.71729511 142.23308043 -104.67578125 146.06640625 C-104.36125 145.35863037 -104.04671875 144.65085449 -103.72265625 143.92163086 C-101.23052281 138.36734474 -98.63021065 132.94955287 -95.67578125 127.62890625 C-93.29780375 123.26542227 -91.12704054 118.94681545 -89.30078125 114.31640625 C-76.11960154 81.51775171 -53.53753181 50.4622343 -28.39160156 25.8125 C-26.67355999 24.0641458 -25.07095385 22.2565181 -23.47265625 20.3984375 C-19.6397664 16.0008177 -15.71661062 11.71116825 -11.67578125 7.50390625 C-11.00289062 6.76849609 -10.33 6.03308594 -9.63671875 5.27539062 C-4.60480104 0.08318982 -4.60480104 0.08318982 0 0 Z " fill="#FEFEFE" transform="translate(281.67578125,573.93359375)"/>
<path d="M0 0 C148.17 0 296.34 0 449 0 C449 0.33 449 0.66 449 1 C448.13503906 1.01417969 447.27007812 1.02835937 446.37890625 1.04296875 C429.40421034 1.68581803 412.81079827 5.46639579 396.5 10.0625 C395.25633667 10.41187622 395.25633667 10.41187622 393.98754883 10.76831055 C386.59137756 12.94454248 379.7251201 16.04455696 372.875 19.5625 C370.16583681 20.95356864 367.48856295 22.20985108 364.66796875 23.3671875 C360.6792716 25.05996477 357.08882229 27.24271405 353.4375 29.5625 C352.39323853 30.22004272 352.39323853 30.22004272 351.32788086 30.89086914 C346.20945408 34.14783829 341.26790112 37.60575491 336.36328125 41.17358398 C331.81121925 44.46753517 327.15714528 47.57655246 322.4375 50.625 C321.78982666 51.04386475 321.14215332 51.46272949 320.47485352 51.89428711 C318.32379992 53.27462391 316.16363274 54.63945852 314 56 C313.03118896 56.61133789 312.06237793 57.22267578 311.06420898 57.85253906 C303.26179391 62.72174644 295.31428995 67.19129345 287.1875 71.5 C285.94816864 72.16083214 284.70891164 72.82180375 283.46972656 73.48291016 C277.106913 76.8693615 270.71792727 80.19296256 264.25 83.375 C239.03294629 95.8434138 215.29788789 111.91169895 195.77734375 132.32421875 C194 134 194 134 192 134 C192 134.66 192 135.32 192 136 C191.319375 136.53625 190.63875 137.0725 189.9375 137.625 C186.10932068 140.72012371 183.14756538 144.22514205 180 148 C179.27901123 148.86044922 179.27901123 148.86044922 178.54345703 149.73828125 C171.49562414 158.17591843 164.83945115 166.66439677 159 176 C158.35804688 177.01191406 157.71609375 178.02382812 157.0546875 179.06640625 C146.68757484 195.63345883 137.40718079 212.46522213 131.05078125 230.99609375 C130 234 130 234 128.4375 237.5625 C124.41029832 247.19276489 122.08089566 257.37703762 119.9375 267.5625 C119.69451172 268.67173828 119.45152344 269.78097656 119.20117188 270.92382812 C118.41622556 274.60703776 117.68737904 278.29759688 117 282 C116.86335938 282.73011292 116.72671875 283.46022583 116.5859375 284.21246338 C114.08957525 297.93059231 113.51663372 311.32739314 113.625 325.25 C113.6286557 326.27915527 113.6323114 327.30831055 113.63607788 328.36865234 C113.69884735 343.43800627 114.22083821 358.15189085 117 373 C117.1227832 373.70769531 117.24556641 374.41539062 117.37207031 375.14453125 C118.12130814 379.46245282 119.01224787 383.73082131 120 388 C120.15082031 388.65403809 120.30164063 389.30807617 120.45703125 389.98193359 C124.34547136 406.66191908 130.19626517 422.30559921 137 438 C137.297854 438.71188477 137.59570801 439.42376953 137.90258789 440.15722656 C140.16770196 445.45974315 142.82458977 450.25477812 146 455.0625 C146.47348877 455.78638916 146.94697754 456.51027832 147.43481445 457.25610352 C152.62135645 465.0889964 158.23753164 472.58446845 164 480 C164.70898438 480.91265625 165.41796875 481.8253125 166.1484375 482.765625 C174.22380096 492.98343183 182.70903299 502.82205599 191.58984375 512.34375 C193.83877036 514.82230769 195.92205351 517.3782505 198 520 C200.39531644 522.51815318 202.75231058 524.8080407 205.5 526.9375 C208 529 208 529 210.125 531.6875 C218.13847606 541.58649984 230.70109267 549.29625972 241.33984375 556.15234375 C244 558 244 558 245.25 560.25 C244.7877085 565.33520655 241.0818089 569.06912225 237.4375 572.44921875 C235.97656841 573.65524822 234.48851777 574.82818814 233 576 C232.195625 576.804375 231.39125 577.60875 230.5625 578.4375 C220.8748022 588.1251978 220.8748022 588.1251978 214.10546875 588.328125 C207.53267067 588.26390616 202.31518326 586.25612637 196.3125 583.75 C186.93721727 580.03989852 177.88756004 577.00184381 168 575 C166.48792969 574.66548828 166.48792969 574.66548828 164.9453125 574.32421875 C142.67956068 570.07348431 118.30932177 572.75779893 98 583 C96.40671875 583.78697266 96.40671875 583.78697266 94.78125 584.58984375 C87.32714585 588.43010068 80.63766355 592.89410496 74 598 C73.26523438 598.54140625 72.53046875 599.0828125 71.7734375 599.640625 C56.50804129 611.07579453 43.89789575 625.19655751 32 640 C30.43850335 641.89665982 28.87600756 643.79249752 27.3125 645.6875 C25.87197263 647.45587153 24.43415904 649.22645981 23 651 C22.48953125 651.6290625 21.9790625 652.258125 21.453125 652.90625 C14.09983336 662.32507299 7.53209383 672.83287769 2.9375 683.86328125 C2 686 2 686 0 689 C0 461.63 0 234.26 0 0 Z " fill="#FEFEFE" transform="translate(0,0)"/>
<path d="M0 0 C96.69 0 193.38 0 293 0 C293 229.35 293 458.7 293 695 C291.25455653 692.38183479 290.31530304 690.34839384 289.25 687.4375 C274.06747367 648.86718496 236.73509178 609.49106848 202 588 C201.13503906 587.43152344 200.27007813 586.86304688 199.37890625 586.27734375 C180.72267239 574.29936766 154.46005666 569.65666637 132.73242188 573.59179688 C120.6989138 576.24324781 109.24479892 580.13686599 97.87890625 584.84130859 C92.39858017 587.0357612 86.87027225 588.65259823 81 587 C76.97119469 584.31828749 74.39935684 581.16591144 71.6875 577.1875 C70.64142578 575.69283203 70.64142578 575.69283203 69.57421875 574.16796875 C67.70648782 570.40933406 67.47965977 568.14840056 68 564 C73.38153553 553.44796954 87.03671175 546.89318998 96.52636719 540.63720703 C114.26515875 528.89655008 132.35994743 514.22954761 144.25390625 496.40234375 C146 494 146 494 148.41796875 491.62109375 C151.32644879 488.6686125 153.50058536 485.58717009 155.75 482.125 C156.1819165 481.465 156.61383301 480.805 157.05883789 480.125 C158.38215912 478.08934446 159.69251159 476.04585243 161 474 C161.3820459 473.40928711 161.7640918 472.81857422 162.15771484 472.20996094 C169.55489771 460.70032392 175.2960015 448.41472237 181 436 C181.32129883 435.30986816 181.64259766 434.61973633 181.97363281 433.90869141 C189.80479626 417.01343048 194.19874529 399.15451092 198 381 C198.15597656 380.2771582 198.31195312 379.55431641 198.47265625 378.80957031 C202.29786614 360.98443683 203.34485788 342.94993791 203.26074219 324.75830078 C203.24989394 321.97276613 203.26079153 319.18786077 203.2734375 316.40234375 C203.28148035 306.71874885 202.75876981 297.54583193 201 288 C200.67933362 285.76193342 200.36971356 283.52226047 200.0703125 281.28125 C199.91433594 280.16363281 199.75835938 279.04601562 199.59765625 277.89453125 C199.28269886 275.63256456 198.9753966 273.36951868 198.67578125 271.10546875 C197.53954213 263.09636861 195.54206966 255.67001556 193 248 C192.57036517 246.59922719 192.14502291 245.19712025 191.7265625 243.79296875 C187.28607227 229.25902378 182.09371652 215.50677485 175.04003906 202.02734375 C174.29833856 200.5815501 173.5786366 199.12438274 172.87402344 197.66015625 C169.826018 191.3518956 166.29531632 185.55193816 162.375 179.75 C161.75963379 178.83541016 161.14426758 177.92082031 160.51025391 176.97851562 C152.71083868 165.49654822 144.23642412 154.99163178 134.71484375 144.90234375 C132.50924226 142.54441294 130.39398991 140.1535608 128.3125 137.6875 C125.11068602 133.95469211 121.48703822 130.8188534 117.72265625 127.6640625 C117.15417969 127.11492187 116.58570313 126.56578125 116 126 C116 125.34 116 124.68 116 124 C114.515 123.505 114.515 123.505 113 123 C113 122.34 113 121.68 113 121 C112.45988281 120.77183594 111.91976562 120.54367188 111.36328125 120.30859375 C108.29272245 118.60836698 105.80815937 116.36794607 103.1875 114.0625 C86.35938616 99.61185751 67.74499554 87.46950406 47.75390625 77.85546875 C41.65741991 74.90090681 35.83784341 71.42973301 30 68 C30.5341951 63.08095346 32.01291385 59.69614157 34.5 55.4375 C34.85094727 54.83397705 35.20189453 54.2304541 35.56347656 53.60864258 C38.09783383 49.32312259 40.86667637 45.24361957 43.75 41.1875 C49.2133931 33.3840007 52.87321518 27.21196196 52.4375 17.44921875 C52.12518129 14.76880229 52.12518129 14.76880229 50.0625 12.0625 C35.67374698 2.37211531 16.79322335 2.37738557 0 1 C0 0.67 0 0.34 0 0 Z " fill="#FEFEFE" transform="translate(484,0)"/>
<path d="M0 0 C3.14225198 1.4437374 6.25505997 2.92253734 9.3359375 4.4921875 C10.03944336 4.84643799 10.74294922 5.20068848 11.46777344 5.56567383 C16.28103054 8.0029635 21.03247111 10.54293784 25.7734375 13.1171875 C32.01803035 16.50468557 38.3938334 19.36179615 45.0234375 21.9296875 C45.0234375 22.5896875 45.0234375 23.2496875 45.0234375 23.9296875 C45.68730469 24.01089844 46.35117187 24.09210938 47.03515625 24.17578125 C51.01077147 25.1787796 54.26104286 27.02033717 57.8359375 28.9921875 C59.3701798 29.82330396 60.90535711 30.65269641 62.44140625 31.48046875 C63.21274902 31.89635254 63.9840918 32.31223633 64.77880859 32.74072266 C67.41418957 34.13666624 70.08092699 35.45530354 72.76196289 36.76074219 C121.68701307 60.59326307 121.68701307 60.59326307 138.0234375 76.9296875 C139.15642949 83.85352747 136.86564796 87.62716294 132.97265625 93.296875 C130.45755201 96.69402983 127.94598087 99.87121188 125.0234375 102.9296875 C124.3634375 102.9296875 123.7034375 102.9296875 123.0234375 102.9296875 C123.0234375 103.5896875 123.0234375 104.2496875 123.0234375 104.9296875 C106.57103701 120.80061022 84.97093107 132.12937689 63.0234375 137.9296875 C62.12318848 138.17315918 61.22293945 138.41663086 60.29541016 138.66748047 C57.2713144 139.47963174 54.24255808 140.27111312 51.2109375 141.0546875 C49.82624268 141.41759888 49.82624268 141.41759888 48.41357422 141.7878418 C32.8954185 145.66937672 17.67047456 147.43511843 1.68945312 147.32080078 C-0.97578049 147.30469223 -3.63949862 147.32077875 -6.3046875 147.33984375 C-29.56647394 147.36777484 -51.44897348 142.56278482 -72.9765625 133.9296875 C-74.00265625 133.52878906 -75.02875 133.12789062 -76.0859375 132.71484375 C-93.56926437 125.69788688 -109.09832295 116.46138893 -123.9765625 104.9296875 C-124.87375 104.24132812 -125.7709375 103.55296875 -126.6953125 102.84375 C-129.47239218 100.51366602 -131.08857168 98.01340584 -132.9765625 94.9296875 C-133.5540625 94.1871875 -134.1315625 93.4446875 -134.7265625 92.6796875 C-136.64508097 88.45894686 -136.63577512 84.48557917 -135.9765625 79.9296875 C-130.68206406 69.53678315 -119.45232929 61.89743461 -109.7265625 55.9296875 C-108.88955811 55.40987305 -108.05255371 54.89005859 -107.19018555 54.35449219 C-104.79124801 52.87017418 -102.38550605 51.39769507 -99.9765625 49.9296875 C-98.87441406 49.25421875 -97.77226562 48.57875 -96.63671875 47.8828125 C-90.64940795 44.30192428 -84.50290485 41.13059117 -78.24926758 38.04980469 C-73.27602466 35.59756861 -68.36715086 33.04251356 -63.4765625 30.4296875 C-51.0793613 23.8267539 -38.49821017 17.6511186 -25.79223633 11.66503906 C-21.56628103 9.66803527 -17.36898766 7.63858241 -13.22265625 5.48046875 C-12.12630859 4.91295898 -12.12630859 4.91295898 -11.0078125 4.33398438 C-9.64945844 3.62566355 -8.2961957 2.90745847 -6.94921875 2.17773438 C-2.58749767 -0.09204537 -2.58749767 -0.09204537 0 0 Z " fill="#020202" transform="translate(400.9765625,410.0703125)"/>
<path d="M0 0 C0.33 0 0.66 0 1 0 C1 91.08 1 182.16 1 276 C-93.38 276 -187.76 276 -285 276 C-285 275.67 -285 275.34 -285 275 C-283.96294922 274.97494385 -282.92589844 274.9498877 -281.85742188 274.92407227 C-277.92846863 274.82832886 -273.99962562 274.72854963 -270.07080078 274.62768555 C-268.38560605 274.58495554 -266.70038491 274.54325204 -265.01513672 274.50268555 C-262.56209402 274.44344391 -260.10917718 274.38023494 -257.65625 274.31640625 C-256.5661261 274.29133751 -256.5661261 274.29133751 -255.45397949 274.26576233 C-250.59160775 274.13462873 -245.7560314 273.84680693 -240.90380859 273.50488281 C-231.02013424 272.84379869 -221.130052 272.7622774 -211.22772598 272.64613914 C-206.6166854 272.59007407 -202.00589092 272.51982818 -197.39503288 272.45055866 C-188.85251278 272.32231811 -180.31001494 272.19939055 -171.76708984 272.10131836 C-165.7831039 272.03207374 -159.79962443 271.94434353 -153.81606674 271.84493446 C-151.55909164 271.8107729 -149.30200576 271.78318307 -147.04486465 271.76274681 C-119.58780715 271.6660686 -119.58780715 271.6660686 -96 259 C-93.97419688 256.33117247 -93.97419688 256.33117247 -92.25 253.4375 C-91.65703125 252.48746094 -91.0640625 251.53742188 -90.453125 250.55859375 C-87.56456735 245.47255811 -87.18000541 240.72372463 -88 235 C-92.46509177 223.26369159 -103.49776394 216.81123729 -114 211 C-114.6084375 210.65453125 -115.216875 210.3090625 -115.84375 209.953125 C-121.81273902 206.75919228 -128.24217544 204.59067849 -134.5859375 202.26953125 C-138 201 -138 201 -140 200 C-138.29953877 195.85576214 -135.3582914 192.75643734 -132.4375 189.4375 C-131.34284711 188.17656451 -130.24910472 186.91483804 -129.15625 185.65234375 C-128.61742187 185.03085449 -128.07859375 184.40936523 -127.5234375 183.76904297 C-123.92290199 179.58803651 -120.45811805 175.29879847 -117 171 C-116.58427734 170.49065918 -116.16855469 169.98131836 -115.74023438 169.45654297 C-96.30987879 145.62916987 -81.00069898 119.07613679 -72.375 89.4375 C-72.18234558 88.78190094 -71.98969116 88.12630188 -71.79119873 87.45083618 C-68.20953096 75.14007949 -66.26854077 62.97684072 -64.8515625 50.23046875 C-63.99680219 43.06939182 -62.86430347 34.73418948 -57.67578125 29.30078125 C-51.74837356 24.69978647 -44.62961774 22.79483517 -37.4375 21.125 C-26.07284076 18.48582023 -11.10846064 14.95456088 -3 6 C-0.99409221 2.83324955 -0.99409221 2.83324955 0 0 Z " fill="#FDFDFD" transform="translate(776,704)"/>
<path d="M0 0 C3 4 3 4 4.37890625 6.53125 C10.66880343 16.11008137 25.85826754 20.29480787 36.375 22.875 C56.36081213 28.05650685 56.36081213 28.05650685 61.1875 36.125 C64.17793275 43.76462117 64.74646047 52.36544376 65.70019531 60.45898438 C66.1154657 63.97863763 66.58100079 67.48875962 67.0625 71 C67.19785156 72.051875 67.33320312 73.10375 67.47265625 74.1875 C68.00223992 77.01194623 68.88017701 79.36229193 70 82 C70.49084531 83.93065821 70.98010019 85.86177352 71.453125 87.796875 C75.25083289 103.09621248 81.9004627 117.26180803 89.10058594 131.21875 C89.89658329 132.79518774 90.64354904 134.39617418 91.3828125 136 C100.01101929 154.5997272 113.64590312 170.56510076 127.53369141 185.42919922 C129.7430154 187.79596422 131.93991581 190.17333387 134.125 192.5625 C134.82882813 193.32691406 135.53265625 194.09132813 136.2578125 194.87890625 C137.88146037 196.85567933 138.97402169 198.66775033 140 201 C137.84696342 203.15303658 136.43954643 203.74224367 133.625 204.8125 C132.7278125 205.163125 131.830625 205.51375 130.90625 205.875 C128 207 128 207 125.09375 208.125 C110.81510641 213.83645743 97.19229177 221.5223587 89 235 C87.25011169 240.5770634 87.40407536 246.07979839 89.125 251.625 C92.88181728 258.38727111 97.07622086 262.61896136 104 266 C104.61746094 266.33773438 105.23492187 266.67546875 105.87109375 267.0234375 C137.49818536 283.95061329 188.86425638 276.17940198 223.86043119 276.30332303 C229.86209679 276.32551663 235.86373976 276.35273857 241.86538696 276.37937927 C253.17977692 276.42886313 264.49417974 276.47396215 275.80859435 276.51740164 C288.7111152 276.56715816 301.61361333 276.62193106 314.51611209 276.67708123 C341.0107201 276.79021913 367.50535 276.89720077 394 277 C394 277.33 394 277.66 394 278 C263.98 278 133.96 278 0 278 C0 186.26 0 94.52 0 0 Z " fill="#FDFDFD" transform="translate(0,702)"/>
<path d="M0 0 C11.58919815 -0.57642609 21.40477576 3.37481511 30.140625 10.93359375 C38.80770577 19.6451972 44.86998629 30.32461791 47.0625 42.44921875 C47.36057864 44.32153551 47.36057864 44.32153551 48.421875 46.2265625 C50.22695417 68.42032211 47.09027247 87.58165268 32.4765625 105.0078125 C24.91866397 113.16919342 15.22271095 118.29150477 4.02124023 118.76977539 C-7.88654503 118.87302586 -16.91822738 115.6356624 -25.578125 107.2265625 C-40.43656024 90.76729433 -44.66632368 72.73182035 -43.76904297 50.92529297 C-42.74762894 36.48704408 -36.77529294 21.88155555 -26.09765625 11.91015625 C-17.76725049 4.99820342 -10.83636117 0.95228628 0 0 Z " fill="#030303" transform="translate(262.578125,305.7734375)"/>
<path d="M0 0 C10.66313623 9.02605723 17.29166932 22.6203676 19.15234375 36.421875 C20.92424041 58.26717623 18.09553305 75.65159008 4.734375 93.57421875 C4.30640625 94.02410156 3.8784375 94.47398437 3.4375 94.9375 C2.7775 94.9375 2.1175 94.9375 1.4375 94.9375 C0.9425 96.4225 0.9425 96.4225 0.4375 97.9375 C-3.01867527 100.61011357 -6.77569903 102.76701652 -10.5625 104.9375 C-11.52542969 105.49244141 -11.52542969 105.49244141 -12.5078125 106.05859375 C-20.59033472 109.8461434 -32.23354009 109.0761531 -40.5 106.375 C-53.67049587 100.71641869 -62.98738001 88.88563371 -68.5625 75.9375 C-75.61280984 56.82284009 -74.7777139 35.66940627 -66.328125 17.24609375 C-63.6972143 12.1978203 -60.4442744 7.11524547 -56.5625 2.9375 C-55.9025 2.9375 -55.2425 2.9375 -54.5625 2.9375 C-54.5625 2.2775 -54.5625 1.6175 -54.5625 0.9375 C-37.54323578 -13.53584969 -17.33568141 -13.26226993 0 0 Z " fill="#030303" transform="translate(570.5625,316.0625)"/>
<path d="M0 0 C0.85207031 0.25910156 1.70414063 0.51820313 2.58203125 0.78515625 C3.90654297 1.15833984 3.90654297 1.15833984 5.2578125 1.5390625 C6.12792969 1.80589844 6.99804688 2.07273437 7.89453125 2.34765625 C9.21904297 2.75177734 9.21904297 2.75177734 10.5703125 3.1640625 C11.23417969 3.36902344 11.89804687 3.57398438 12.58203125 3.78515625 C12.58203125 4.44515625 12.58203125 5.10515625 12.58203125 5.78515625 C13.49952148 5.93645996 13.49952148 5.93645996 14.43554688 6.09082031 C20.70206645 7.21994454 26.23937677 9.04167045 32.08203125 11.53515625 C38.68071194 14.26909045 45.28359503 16.78085436 52.08203125 18.97265625 C59.08179384 21.23424657 65.82374396 23.87373233 72.58203125 26.78515625 C77.00376072 28.57303503 81.49667281 30.08997106 86.02978516 31.5715332 C92.38904827 33.65253378 98.52742008 35.91718254 104.58203125 38.78515625 C104.58203125 39.11515625 104.58203125 39.44515625 104.58203125 39.78515625 C79.81683551 43.93722831 54.91506336 46.12438014 29.81738281 46.62744141 C27.07019136 46.76135973 24.37969162 47.00728928 21.64550781 47.29003906 C14.65846392 47.94298366 7.68743666 47.92992952 0.67578125 47.91796875 C-0.73946143 47.91864458 -2.154704 47.91961692 -3.56994629 47.92086792 C-6.51815917 47.92233176 -9.46634149 47.92023302 -12.41455078 47.91552734 C-16.16293013 47.90983087 -19.91123783 47.91311698 -23.65961456 47.91909981 C-26.57668583 47.92274115 -29.49374057 47.92155055 -32.41081238 47.91897202 C-33.79168202 47.9183126 -35.17255323 47.91909603 -36.55342102 47.92145157 C-44.56751278 47.93212764 -52.45188557 47.6912149 -60.41796875 46.78515625 C-58.61212726 42.8292054 -56.10949887 40.50877886 -52.79296875 37.78515625 C-52.22465332 37.31166748 -51.65633789 36.83817871 -51.07080078 36.3503418 C-41.4076412 28.38638558 -31.22879004 21.06523958 -21.0859375 13.73046875 C-12.51415424 7.61871445 -12.51415424 7.61871445 -4.3828125 0.9609375 C-2.41796875 -0.21484375 -2.41796875 -0.21484375 0 0 Z " fill="#F9F9F9" transform="translate(549.41796875,902.21484375)"/>
<path d="M0 0 C1.96582031 1.10595703 1.96582031 1.10595703 3.828125 2.6328125 C4.51583984 3.18227539 5.20355469 3.73173828 5.91210938 4.29785156 C6.60111328 4.85956055 7.29011719 5.42126953 8 6 C9.28231657 6.98199469 10.56869513 7.95871127 11.859375 8.9296875 C12.49407715 9.41083008 13.1287793 9.89197266 13.78271484 10.38769531 C20.14021507 15.1940854 26.55648313 19.76170417 33.234375 24.11328125 C37.00562205 26.68603877 40.52257065 29.52594434 44.0390625 32.43359375 C45.91704911 34.04553122 45.91704911 34.04553122 48 35 C48 35.66 48 36.32 48 37 C48.804375 37.3403125 48.804375 37.3403125 49.625 37.6875 C52.82460161 39.45570089 55.29037223 41.53670203 58 44 C58 44.66 58 45.32 58 46 C-58.05635106 46.31043909 -58.05635106 46.31043909 -107 39 C-104.92048809 36.92048809 -103.88691058 36.46342221 -101.16796875 35.5546875 C-100.38067383 35.28672363 -99.59337891 35.01875977 -98.78222656 34.74267578 C-97.9259668 34.45634277 -97.06970703 34.17000977 -96.1875 33.875 C-88.99151477 31.41362532 -81.84864868 28.85467607 -74.75 26.125 C-73.88479736 25.79274414 -73.01959473 25.46048828 -72.12817383 25.11816406 C-70.33767325 24.43048073 -68.54722802 23.74265326 -66.75683594 23.0546875 C-49.8205704 16.57535106 -32.80534135 10.29490274 -15.78515625 4.04003906 C-14.05651076 3.39452453 -12.33372342 2.73277824 -10.62109375 2.04589844 C-6.89701072 0.55800545 -4.00631077 -0.38214519 0 0 Z " fill="#FAFAFA" transform="translate(229,903)"/>
<path d="M0 0 C4.82007274 -0.45188182 8.62339777 1.23558345 13 3 C21.36837604 6.26321783 29.86742782 8.76635289 38.5625 11 C39.23707245 11.17330841 39.9116449 11.34661682 40.60665894 11.525177 C82.41852169 22.17117383 127.18518338 23.82006288 169.05126953 12.51611328 C171.05867255 11.98446082 173.071783 11.48565414 175.08984375 10.99609375 C182.55322465 9.18496344 189.91644368 7.18866834 197.23046875 4.83203125 C202.28437415 3.31372117 206.71347362 2.89634262 212 3 C210.70703519 6.87889444 209.47066235 7.09457471 205.890625 8.92578125 C204.83302979 9.47218262 203.77543457 10.01858398 202.68579102 10.58154297 C201.55197998 11.15275879 200.41816895 11.72397461 199.25 12.3125 C198.09491943 12.89918457 196.93983887 13.48586914 195.74975586 14.09033203 C193.54042773 15.2084933 191.32873299 16.32199866 189.11401367 17.42944336 C186.92265033 18.53466017 184.74218941 19.6616286 182.57006836 20.80419922 C143.81032636 41.04774009 91.34919146 38.87633798 50.31762695 27.7421875 C47.10630026 26.7138052 44.09373403 25.35650803 41.04003906 23.93432617 C37.54968851 22.33576567 33.91538604 21.16529314 30.28515625 19.9296875 C28 19 28 19 26 17 C24.33976643 16.28251212 22.67787053 15.56850256 21.00585938 14.87890625 C17.45861337 13.32461151 14.11854443 11.40423314 10.75 9.5 C10.04359375 9.10941406 9.3371875 8.71882813 8.609375 8.31640625 C7.92875 7.93355469 7.248125 7.55070312 6.546875 7.15625 C5.93682617 6.81400391 5.32677734 6.47175781 4.69824219 6.11914062 C2.85932569 4.90729571 1.43393687 3.67164832 0 2 C0 1.34 0 0.68 0 0 Z " fill="#F3F3F3" transform="translate(293,496)"/>
<path d="M0 0 C3.28455151 2.46341363 5.44955039 4.48576637 6.140625 8.6875 C6.31817298 12.9486515 6.17713859 15.58026242 4 19.3125 C-0.18911262 23.03615566 -3.56318478 23.75944147 -9.0625 23.6328125 C-12.37666123 23.1475246 -14.02202532 21.74301784 -16.25 19.3125 C-18.76444366 15.07437411 -18.95592433 11.13344666 -18.25 6.3125 C-14.05500485 -0.72909899 -7.66200249 -2.34116743 0 0 Z " fill="#F5F5F5" transform="translate(256.25,327.6875)"/>
<path d="M0 0 C3.5832734 2.65074118 5.46509003 4.96432369 6.21875 9.41015625 C6.40964577 14.32364731 4.90970769 17.05475551 2.03125 20.97265625 C-2.2078381 23.79871499 -5.98999503 23.63277871 -10.96875 22.97265625 C-14.36363422 20.92158037 -15.77198081 19.26781004 -17.96875 15.97265625 C-18.66377786 11.20444186 -18.66312161 7.20709467 -16.28125 2.97265625 C-11.65485852 -1.02854719 -5.78165498 -3.01701441 0 0 Z " fill="#F5F5F5" transform="translate(534.96875,328.02734375)"/>
<path d="M0 0 C0 0.33 0 0.66 0 1 C-11.88 1 -23.76 1 -36 1 C-35.505 2.485 -35.505 2.485 -35 4 C-72.62 4 -110.24 4 -149 4 C-149 3.67 -149 3.34 -149 3 C-147.96294922 2.97494385 -146.92589844 2.9498877 -145.85742188 2.92407227 C-141.92846863 2.82832886 -137.99962562 2.72854963 -134.07080078 2.62768555 C-132.38560605 2.58495554 -130.70038491 2.54325204 -129.01513672 2.50268555 C-120.84513795 2.30537788 -112.69632099 2.08265432 -104.54296875 1.5 C-92.31716963 0.68337091 -80.06076441 0.62591404 -67.8125 0.4375 C-66.51516937 0.41632111 -65.21783875 0.39514221 -63.88119507 0.37332153 C-42.58619406 0.02643538 -21.2973847 -0.13737521 0 0 Z " fill="#D8D8D8" transform="translate(640,976)"/>
<path d="M0 0 C0.78632812 0.00451172 1.57265625 0.00902344 2.3828125 0.01367188 C4.25524426 0.02508914 6.12763501 0.0429962 8 0.0625 C8.495 1.5475 8.495 1.5475 9 3.0625 C-14.76 3.0625 -38.52 3.0625 -63 3.0625 C-63 2.7325 -63 2.4025 -63 2.0625 C-61.96294922 2.03744385 -60.92589844 2.0123877 -59.85742188 1.98657227 C-55.92846863 1.89082886 -51.99962562 1.79104963 -48.07080078 1.69018555 C-46.38560605 1.64745554 -44.70038491 1.60575204 -43.01513672 1.56518555 C-34.4676551 1.35876157 -25.93779901 1.10678696 -17.40625 0.53125 C-11.59027613 0.14096754 -5.82743525 -0.06739916 0 0 Z " fill="#D9D9D9" transform="translate(554,976.9375)"/>
<path d="M0 0 C0 0.66 0 1.32 0 2 C1.65 2 3.3 2 5 2 C5 1.34 5 0.68 5 0 C12.92 0 20.84 0 29 0 C29 0.33 29 0.66 29 1 C31.64 1.33 34.28 1.66 37 2 C37 2.33 37 2.66 37 3 C31.7530145 3.02488901 26.50606408 3.04294884 21.2590332 3.05493164 C19.47745158 3.05993201 17.69587401 3.06673446 15.91430664 3.07543945 C13.3399963 3.08769464 10.76574064 3.09327142 8.19140625 3.09765625 C7.40665421 3.10281754 6.62190216 3.10797882 5.81336975 3.11329651 C0.47043137 3.11382743 -4.69793151 2.66708655 -10 2 C-10 1.67 -10 1.34 -10 1 C-3.375 0 -3.375 0 0 0 Z " fill="#DADADA" transform="translate(379,931)"/>
<path d="M0 0 C-1.34541692 4.03625076 -3.85947465 4.85447953 -7.4375 6.6875 C-8.03626953 7.00783203 -8.63503906 7.32816406 -9.25195312 7.65820312 C-13.71085421 10 -13.71085421 10 -16 10 C-16.66 8.35 -17.32 6.7 -18 5 C-19.65 5 -21.3 5 -23 5 C-16.57067093 0.71378062 -7.65663132 -0.53418358 0 0 Z " fill="#D6D6D6" transform="translate(505,499)"/>
<path d="M0 0 C4.80548597 -0.04936883 9.61082494 -0.08570443 14.41650391 -0.10986328 C16.05194672 -0.11993254 17.68737149 -0.13358881 19.32275391 -0.15087891 C21.6709437 -0.17508705 24.01889588 -0.18647357 26.3671875 -0.1953125 C27.10057343 -0.20563507 27.83395935 -0.21595764 28.58956909 -0.22659302 C30.39462697 -0.22699368 32.1990783 -0.12212755 34 0 C36 2 36 2 37 5 C36.08863281 4.87882813 35.17726563 4.75765625 34.23828125 4.6328125 C22.84811943 3.15945824 11.43742531 2.03764273 0 1 C0 0.67 0 0.34 0 0 Z " fill="#ECECEC" transform="translate(484,0)"/>
<path d="M0 0 C3.56311404 0.11029647 7.12521145 0.24082717 10.6875 0.375 C11.69490234 0.4059375 12.70230469 0.436875 13.74023438 0.46875 C14.71669922 0.50742187 15.69316406 0.54609375 16.69921875 0.5859375 C17.59471436 0.6173584 18.49020996 0.6487793 19.4128418 0.68115234 C22.21592507 1.02661113 24.43264531 1.84681468 27 3 C27 3.33 27 3.66 27 4 C18.42 4 9.84 4 1 4 C0.67 2.68 0.34 1.36 0 0 Z " fill="#EDEDED" transform="translate(125,976)"/>
<path d="M0 0 C5.95319301 -0.55811184 11.1356474 1.75709826 16 5 C14.6875 7 14.6875 7 13 9 C9.43327362 9 8.29896369 8.14474605 5.375 6.1875 C4.57835937 5.66542969 3.78171875 5.14335937 2.9609375 4.60546875 C1 3 1 3 0 0 Z " fill="#EAEAEA" transform="translate(293,496)"/>
<path d="M0 0 C0.33 0 0.66 0 1 0 C0.57910004 5.60461531 0.08386889 10.72086547 -2 16 C-2.4125 15.360625 -2.825 14.72125 -3.25 14.0625 C-5.22214751 11.7381833 -6.11218234 11.56682371 -9 11 C-7.52444734 9.16375669 -6.04446569 7.3310715 -4.5625 5.5 C-3.73878906 4.4790625 -2.91507813 3.458125 -2.06640625 2.40625 C-1.38449219 1.6121875 -0.70257812 0.818125 0 0 Z " fill="#1D1D1D" transform="translate(592,830)"/>
<path d="M0 0 C0.99 0 1.98 0 3 0 C3 0.66 3 1.32 3 2 C1.5390625 3.078125 1.5390625 3.078125 -0.375 4.25 C-3.94768667 6.66787886 -5.09930379 8.69667366 -6 13 C-6.66 12.67 -7.32 12.34 -8 12 C-8.350625 12.969375 -8.70125 13.93875 -9.0625 14.9375 C-11 18 -11 18 -14.6875 18.875 C-15.780625 18.91625 -16.87375 18.9575 -18 19 C-12.07058824 11.75294118 -12.07058824 11.75294118 -9 9 C-8.34 9 -7.68 9 -7 9 C-6.34 7.68 -5.68 6.36 -5 5 C-4.34 5 -3.68 5 -3 5 C-2.690625 4.360625 -2.38125 3.72125 -2.0625 3.0625 C-1 1 -1 1 0 0 Z " fill="#2B2B2B" transform="translate(242,566)"/>
<path d="M0 0 C0.99 0.99 1.98 1.98 3 3 C0.58522432 4.62787116 -1.83170438 6.25237281 -4.25 7.875 C-4.93191406 8.33519531 -5.61382812 8.79539062 -6.31640625 9.26953125 C-6.98027344 9.71425781 -7.64414062 10.15898438 -8.328125 10.6171875 C-9.23933105 11.22989502 -9.23933105 11.22989502 -10.16894531 11.85498047 C-12.06024063 13.03767048 -13.99058862 14.03408604 -16 15 C-15.875 13.25 -15.875 13.25 -15 11 C-13.03852126 9.61061923 -11.03833424 8.2739589 -9 7 C-8.67 6.34 -8.34 5.68 -8 5 C-5.4375 4.375 -5.4375 4.375 -3 4 C-2.67 3.01 -2.34 2.02 -2 1 C-1.34 0.67 -0.68 0.34 0 0 Z " fill="#EDEDED" transform="translate(331,40)"/>
<path d="M0 0 C1.62436465 3.2487293 0.78696616 6.57810252 0 10 C-2.01839765 13.02759647 -4.69564184 13.6956481 -8 15 C-8.33 15.66 -8.66 16.32 -9 17 C-9.66 16.67 -10.32 16.34 -11 16 C-7.37 10.72 -3.74 5.44 0 0 Z " fill="#1E1E1E" transform="translate(167,163)"/>
<path d="M0 0 C0 0.33 0 0.66 0 1 C-0.60062256 1.0501123 -1.20124512 1.10022461 -1.82006836 1.15185547 C-4.52681499 1.38316547 -7.23206122 1.62888405 -9.9375 1.875 C-10.88302734 1.95363281 -11.82855469 2.03226563 -12.80273438 2.11328125 C-13.70185547 2.19707031 -14.60097656 2.28085937 -15.52734375 2.3671875 C-16.77632446 2.47716064 -16.77632446 2.47716064 -18.05053711 2.58935547 C-18.69385986 2.72486816 -19.33718262 2.86038086 -20 3 C-20.33 3.66 -20.66 4.32 -21 5 C-20.34 5.33 -19.68 5.66 -19 6 C-19 7.32 -19 8.64 -19 10 C-21.46800047 8.84826645 -23.04783565 7.95216435 -25 6 C-24.8125 3.9375 -24.8125 3.9375 -24 2 C-16.42717042 -0.52427653 -7.90909406 -0.15440748 0 0 Z " fill="#4C4C4C" transform="translate(651,713)"/>
<path d="M0 0 C-1 3 -1 3 -2.7421875 4.203125 C-3.44601562 4.54859375 -4.14984375 4.8940625 -4.875 5.25 C-5.57367188 5.60578125 -6.27234375 5.9615625 -6.9921875 6.328125 C-9 7 -9 7 -12 6 C-11.66411682 3.48087612 -11.42645046 2.32803881 -9.375 0.75 C-6.1989627 -0.25295915 -3.30771122 -0.12721966 0 0 Z " fill="#F2F2F2" transform="translate(505,499)"/>
<path d="M0 0 C0.99 0 1.98 0 3 0 C3 8.91 3 17.82 3 27 C2.01 27.33 1.02 27.66 0 28 C0 18.76 0 9.52 0 0 Z " fill="#DFDFDF" transform="translate(589,352)"/>
<path d="M0 0 C1.125 3.75 1.125 3.75 0 6 C-0.66 6 -1.32 6 -2 6 C-2.33 6.66 -2.66 7.32 -3 8 C-3.804375 8.763125 -4.60875 9.52625 -5.4375 10.3125 C-7.89750605 12.89250635 -8.9470186 14.64960463 -10 18 C-11.32 17.34 -12.64 16.68 -14 16 C-9.33333333 10.66666667 -4.66666667 5.33333333 0 0 Z " fill="#D0D0D0" transform="translate(214,158)"/>
<path d="M0 0 C1.33333333 0 2.66666667 0 4 0 C4 7.26 4 14.52 4 22 C3.67 22 3.34 22 3 22 C2.49599549 19.08397391 1.99665334 16.16727908 1.5 13.25 C1.35691406 12.425 1.21382812 11.6 1.06640625 10.75 C0.93105469 9.95078125 0.79570313 9.1515625 0.65625 8.328125 C0.53056641 7.5949707 0.40488281 6.86181641 0.27539062 6.10644531 C0 4 0 4 0 0 Z " fill="#BBBBBB" transform="translate(682,266)"/>
<path d="M0 0 C1.53271273 4.58798777 0.02911182 6.77944742 -2 11 C-2.33 10.34 -2.66 9.68 -3 9 C-4.98 9.99 -4.98 9.99 -7 11 C-7 11.66 -7 12.32 -7 13 C-8.65 13.66 -10.3 14.32 -12 15 C-8.19695186 9.80789528 -4.23841458 4.84390238 0 0 Z " fill="#1B1B1B" transform="translate(49,619)"/>
<path d="M0 0 C7.92 0 15.84 0 24 0 C24.33 0.99 24.66 1.98 25 3 C16.75 2.34 8.5 1.68 0 1 C0 0.67 0 0.34 0 0 Z " fill="#E0E0E0" transform="translate(484,0)"/>
<path d="M0 0 C2.97 0.495 2.97 0.495 6 1 C6 1.99 6 2.98 6 4 C6.66 4 7.32 4 8 4 C8.2475 4.7425 8.495 5.485 8.75 6.25 C10.09147301 9.20124062 11.60905526 10.84814974 14 13 C11 13 11 13 8.30078125 10.41015625 C7.29625729 9.30185366 6.3004628 8.18559061 5.3125 7.0625 C4.80138672 6.49853516 4.29027344 5.93457031 3.76367188 5.35351562 C0 1.15769985 0 1.15769985 0 0 Z " fill="#D5D5D5" transform="translate(616,141)"/>
<path d="M0 0 C1.98 0.66 3.96 1.32 6 2 C6 5.3 6 8.6 6 12 C5.67 11.34 5.34 10.68 5 10 C4.01 10 3.02 10 2 10 C2 7.69 2 5.38 2 3 C1.01 3.495 1.01 3.495 0 4 C-0.33 3.01 -0.66 2.02 -1 1 C-0.67 0.67 -0.34 0.34 0 0 Z " fill="#D8D8D8" transform="translate(590,828)"/>
<path d="M0 0 C4.55015893 1.51671964 6.50057264 5.16891053 9 9 C6 10 6 10 3.9375 9.375 C1.3888603 7.56628796 0.8675097 5.96399147 0 3 C0 2.01 0 1.02 0 0 Z " fill="#2B2B2B" transform="translate(183,828)"/>
<path d="M0 0 C0 3.94405202 -1.49401172 5.0517785 -4 8 C-5.93798263 10.77260299 -5.93798263 10.77260299 -7 13 C-7.66 12.67 -8.32 12.34 -9 12 C-9.99 11.67 -10.98 11.34 -12 11 C-11.0409375 10.5978125 -11.0409375 10.5978125 -10.0625 10.1875 C-7.66868314 9.11332248 -7.66868314 9.11332248 -7 6 C-5.37109375 4.39453125 -5.37109375 4.39453125 -3.4375 2.8125 C-2.79683594 2.28269531 -2.15617188 1.75289062 -1.49609375 1.20703125 C-1.00238281 0.80871094 -0.50867188 0.41039062 0 0 Z " fill="#D7D7D7" transform="translate(227,146)"/>
<path d="M0 0 C8.25 0 16.5 0 25 0 C25 0.33 25 0.66 25 1 C23.94941406 1.06058594 22.89882813 1.12117187 21.81640625 1.18359375 C14.51717848 1.61546473 7.25888365 2.09263954 0 3 C0 2.01 0 1.02 0 0 Z " fill="#DEDEDE" transform="translate(424,0)"/>
<path d="M0 0 C1.09570312 0.00902344 2.19140625 0.01804687 3.3203125 0.02734375 C4.16335938 0.03894531 5.00640625 0.05054688 5.875 0.0625 C5.875 0.7225 5.875 1.3825 5.875 2.0625 C3.23041621 3.38479189 1.19738699 3.15927194 -1.75 3.125 C-2.75289062 3.11597656 -3.75578125 3.10695313 -4.7890625 3.09765625 C-5.55992187 3.08605469 -6.33078125 3.07445312 -7.125 3.0625 C-7.455 2.4025 -7.785 1.7425 -8.125 1.0625 C-5.36047967 -0.31976016 -3.0788637 -0.03275387 0 0 Z " fill="#DEDEDE" transform="translate(572.125,583.9375)"/>
<path d="M0 0 C0.7265625 1.67578125 0.7265625 1.67578125 1 4 C-0.4765625 6.54296875 -0.4765625 6.54296875 -2.625 9.1875 C-3.31851563 10.06792969 -4.01203125 10.94835937 -4.7265625 11.85546875 C-7.22586476 14.21305799 -8.62910952 14.69839401 -12 15 C-12.33 14.34 -12.66 13.68 -13 13 C-12.38511719 12.61328125 -11.77023437 12.2265625 -11.13671875 11.828125 C-10.32847656 11.30734375 -9.52023437 10.7865625 -8.6875 10.25 C-7.88699219 9.73953125 -7.08648438 9.2290625 -6.26171875 8.703125 C-2.9288063 6.1933671 -1.31636303 3.94908909 0 0 Z " fill="#D4D4D4" transform="translate(776,704)"/>
<path d="M0 0 C3.28788824 3.11016455 5.83735988 6.01618925 8 10 C7.01 10.33 6.02 10.66 5 11 C4.34 10.67 3.68 10.34 3 10 C3 9.01 3 8.02 3 7 C2.01 7 1.02 7 0 7 C0 4.69 0 2.38 0 0 Z " fill="#D6D6D6" transform="translate(609,181)"/>
<path d="M0 0 C1 3 1 3 0.0625 5.1875 C-0.4634375 6.0846875 -0.4634375 6.0846875 -1 7 C-1.66 7 -2.32 7 -3 7 C-3 7.66 -3 8.32 -3 9 C-2.34 9.33 -1.68 9.66 -1 10 C-1.99 11.32 -2.98 12.64 -4 14 C-5 13 -5 13 -5.375 9.8125 C-4.88800303 4.86136409 -3.40702082 3.49219634 0 0 Z " fill="#E0E0E0" transform="translate(557,558)"/>
<path d="M0 0 C1.26724763 3.80174289 0.4750819 5.3511132 -1 9 C-3.15634036 11.15634036 -5.37098712 12.47793991 -8 14 C-6.6744419 10.37723685 -5.05653045 7.36494652 -2.875 4.1875 C-2.33617187 3.39730469 -1.79734375 2.60710937 -1.2421875 1.79296875 C-0.83226562 1.20128906 -0.42234375 0.60960937 0 0 Z " fill="#D7D7D7" transform="translate(188,189)"/>
<path d="M0 0 C5.61 0 11.22 0 17 0 C17.33 0.99 17.66 1.98 18 3 C15.75059705 3.08119503 13.50035129 3.13927819 11.25 3.1875 C9.99703125 3.22230469 8.7440625 3.25710938 7.453125 3.29296875 C4 3 4 3 0 0 Z " fill="#EEEEEE" transform="translate(587,977)"/>
<path d="M0 0 C-1.38188453 3.21043882 -2.92421903 5.04936365 -5.625 7.25 C-6.57246094 8.03117188 -6.57246094 8.03117188 -7.5390625 8.828125 C-8.02117188 9.21484375 -8.50328125 9.6015625 -9 10 C-8.68279301 6.51072308 -8.33692769 4.44149146 -6.1875 1.625 C-4 0 -4 0 0 0 Z " fill="#DDDDDD" transform="translate(568,858)"/>
<path d="M0 0 C-2.97 1.32 -5.94 2.64 -9 4 C-8.67 4.66 -8.34 5.32 -8 6 C-11.375 6.125 -11.375 6.125 -15 6 C-15.66 5.34 -16.32 4.68 -17 4 C-14.54453034 3.13670227 -12.08621957 2.28410564 -9.625 1.4375 C-8.57699219 1.0672168 -8.57699219 1.0672168 -7.5078125 0.68945312 C-2.2265625 -1.11328125 -2.2265625 -1.11328125 0 0 Z " fill="#CCCCCC" transform="translate(757,721)"/>
<path d="M0 0 C3.63 0.33 7.26 0.66 11 1 C11 1.99 11 2.98 11 4 C2.42857143 4.28571429 2.42857143 4.28571429 -1 2 C-0.67 1.34 -0.34 0.68 0 0 Z " fill="#202020" transform="translate(253,420)"/>
<path d="M0 0 C0 1.65 0 3.3 0 5 C-1.0828125 5.4021875 -1.0828125 5.4021875 -2.1875 5.8125 C-5.05633076 6.93515158 -5.05633076 6.93515158 -7.6875 8.6875 C-8.450625 9.120625 -9.21375 9.55375 -10 10 C-10.66 9.67 -11.32 9.34 -12 9 C-10.18992669 7.49707257 -8.37687764 5.99772829 -6.5625 4.5 C-5.55316406 3.6646875 -4.54382813 2.829375 -3.50390625 1.96875 C-1 0 -1 0 0 0 Z " fill="#DCDCDC" transform="translate(351,71)"/>
<path d="M0 0 C5.94 0 11.88 0 18 0 C18.33 0.99 18.66 1.98 19 3 C12.84765625 3.09765625 12.84765625 3.09765625 11 3 C10.67 2.67 10.34 2.34 10 2 C8.31816052 1.76712992 6.6287584 1.58735834 4.9375 1.4375 C4.01839844 1.35371094 3.09929688 1.26992188 2.15234375 1.18359375 C1.08693359 1.09271484 1.08693359 1.09271484 0 1 C0 0.67 0 0.34 0 0 Z " fill="#CECECE" transform="translate(544,977)"/>
<path d="M0 0 C1.33333333 0.66666667 2.66666667 1.33333333 4 2 C5.99110401 2.38290462 7.99100513 2.72604615 10 3 C10 3.33 10 3.66 10 4 C2.58982977 4.11459026 -4.64206267 3.91160286 -12 3 C-12 2.67 -12 2.34 -12 2 C-10.95199219 1.90912109 -10.95199219 1.90912109 -9.8828125 1.81640625 C-8.97273437 1.73261719 -8.06265625 1.64882813 -7.125 1.5625 C-6.22007812 1.48128906 -5.31515625 1.40007813 -4.3828125 1.31640625 C-1.98889139 1.13010715 -1.98889139 1.13010715 0 0 Z " fill="#B3B3B3" transform="translate(178,944)"/>
<path d="M0 0 C0.66 0.66 1.32 1.32 2 2 C1.71267364 6.45355865 1.4056198 10.15100832 -1 14 C-2.58493084 10.83013832 -2.2940042 7.45967739 -2 4 C-1 1.5 -1 1.5 0 0 Z " fill="#E1E1E1" transform="translate(651,370)"/>
<path d="M0 0 C1.12906176 3.38718527 1.24423499 4.68204004 0 8 C-2.9375 9.75 -2.9375 9.75 -6 11 C-6.99 11.495 -6.99 11.495 -8 12 C-6.59023295 8.96147295 -4.91129772 6.4060405 -2.875 3.75 C-2.06675781 2.69039062 -2.06675781 2.69039062 -1.2421875 1.609375 C-0.83226562 1.07828125 -0.42234375 0.5471875 0 0 Z " fill="#DFDFDF" transform="translate(199,175)"/>
<path d="M0 0 C0.66 0.33 1.32 0.66 2 1 C0.625 3 0.625 3 -1 5 C-1.66 5 -2.32 5 -3 5 C-4.67745682 5.63903117 -6.34561387 6.30341637 -8 7 C-8 7.66 -8 8.32 -8 9 C-8.66 9 -9.32 9 -10 9 C-10 9.66 -10 10.32 -10 11 C-12 10 -12 10 -13 8 C-10.880788 6.63594382 -8.75551882 5.28368225 -6.625 3.9375 C-6.02171875 3.54755859 -5.4184375 3.15761719 -4.796875 2.75585938 C-3.23507443 1.77539568 -1.62007786 0.88083925 0 0 Z " fill="#232323" transform="translate(359,25)"/>
<path d="M0 0 C0.66 1.32 1.32 2.64 2 4 C1.360625 4.78375 0.72125 5.5675 0.0625 6.375 C-1.98142313 8.79539281 -1.98142313 8.79539281 -3 11 C-4.64142963 12.0409066 -6.30712215 13.04504326 -8 14 C-6.46162154 10.80375738 -4.71133468 7.78394426 -2.875 4.75 C-2.33617187 3.85796875 -1.79734375 2.9659375 -1.2421875 2.046875 C-0.62730469 1.03367188 -0.62730469 1.03367188 0 0 Z " fill="#DCDCDC" transform="translate(533,33)"/>
<path d="M0 0 C0.99 0.99 1.98 1.98 3 3 C-0.63 3.66 -4.26 4.32 -8 5 C-7.67 3.68 -7.34 2.36 -7 1 C-4.45132831 -0.27433584 -2.82594567 -0.27570202 0 0 Z " fill="#E6E6E6" transform="translate(613,571)"/>
<path d="M0 0 C0.33 0.66 0.66 1.32 1 2 C-1.45454545 7.72727273 -1.45454545 7.72727273 -4 9 C-4.28875 9.66 -4.5775 10.32 -4.875 11 C-6 13 -6 13 -8.125 13.75 C-9.053125 13.87375 -9.053125 13.87375 -10 14 C-8.85004126 10.55012377 -7.54940423 9.54940423 -5 7 C-3.26290416 4.71019184 -1.63671992 2.364151 0 0 Z " fill="#D7D7D7" transform="translate(581,400)"/>
<path d="M0 0 C0.33 0 0.66 0 1 0 C1 4.66666667 1 9.33333333 1 14 C0.01 14.495 0.01 14.495 -1 15 C-1.66 15.99 -2.32 16.98 -3 18 C-2.51679152 11.7945858 -1.66681876 6.00054754 0 0 Z " fill="#C7C7C7" transform="translate(154,266)"/>
<path d="M0 0 C0.33 0 0.66 0 1 0 C1.36585366 5.48780488 1.36585366 5.48780488 -0.25 7.75 C-2.09419396 9.0672814 -3.93341837 10.07360134 -6 11 C-4.55007731 6.89188572 -2.54592427 3.53144334 0 0 Z " fill="#D4D4D4" transform="translate(211,654)"/>
<path d="M0 0 C0.33 0.66 0.66 1.32 1 2 C0.0625 4.125 0.0625 4.125 -1 6 C-1.66 6 -2.32 6 -3 6 C-3.33 7.32 -3.66 8.64 -4 10 C-4.66 10 -5.32 10 -6 10 C-6.33 10.66 -6.66 11.32 -7 12 C-7.99 12 -8.98 12 -10 12 C-9.61328125 11.55269531 -9.2265625 11.10539063 -8.828125 10.64453125 C-5.81609925 7.1478974 -2.85678969 3.62592537 0 0 Z " fill="#E3E3E3" transform="translate(258,594)"/>
<path d="M0 0 C-0.804375 0.28875 -1.60875 0.5775 -2.4375 0.875 C-5.1326468 1.73262568 -5.1326468 1.73262568 -6 4 C-9.375 4.125 -9.375 4.125 -13 4 C-13.66 3.34 -14.32 2.68 -15 2 C-13.25364835 1.46706165 -11.50272348 0.94909337 -9.75 0.4375 C-8.77546875 0.14746094 -7.8009375 -0.14257812 -6.796875 -0.44140625 C-4.03756068 -0.99249836 -2.6087176 -0.93789609 0 0 Z " fill="#D6D6D6" transform="translate(481,588)"/>
<path d="M0 0 C0.33 0.99 0.66 1.98 1 3 C-0.98 3.99 -0.98 3.99 -3 5 C-2.67 6.32 -2.34 7.64 -2 9 C-3.98 9 -5.96 9 -8 9 C-6.4169423 4.7257442 -3.49431596 2.73468206 0 0 Z " fill="#D3D3D3" transform="translate(497,940)"/>
<path d="M0 0 C0 2.33333333 0 4.66666667 0 7 C-1.96466413 8.06775224 -3.96855359 9.06553465 -6 10 C-6.66 9.67 -7.32 9.34 -8 9 C-5.36 6.03 -2.72 3.06 0 0 Z " fill="#DEDEDE" transform="translate(655,880)"/>
<path d="M0 0 C3.3 1.98 6.6 3.96 10 6 C9.34 6.66 8.68 7.32 8 8 C5.14169516 7.80944634 3.96573509 6.97144591 1.75 5.125 C0 3 0 3 0 0 Z " fill="#E5E5E5" transform="translate(7,712)"/>
<path d="M0 0 C2.97 0.495 2.97 0.495 6 1 C5 4 5 4 3 6 C2.01 6 1.02 6 0 6 C-0.66 5.34 -1.32 4.68 -2 4 C-1.34 2.68 -0.68 1.36 0 0 Z " fill="#DDDDDD" transform="translate(303,499)"/>
<path d="M0 0 C2.75 0.0625 2.75 0.0625 6 1 C7.76511299 3.22511214 8.77297776 5.40437603 10 8 C7 8 7 8 5.17578125 6.50390625 C4.56089844 5.86324219 3.94601562 5.22257813 3.3125 4.5625 C2.68988281 3.92441406 2.06726563 3.28632813 1.42578125 2.62890625 C0 1 0 1 0 0 Z " fill="#E6E6E6" transform="translate(606,130)"/>
<path d="M0 0 C2.97 0.99 5.94 1.98 9 3 C9 3.33 9 3.66 9 4 C4.545 4.495 4.545 4.495 0 5 C-0.33 4.01 -0.66 3.02 -1 2 C-0.67 1.34 -0.34 0.68 0 0 Z " fill="#D1D1D1" transform="translate(645,938)"/>
<path d="M0 0 C0.66 0.33 1.32 0.66 2 1 C2 1.66 2 2.32 2 3 C0.948125 3.391875 -0.10375 3.78375 -1.1875 4.1875 C-4.91658932 5.76402557 -7.29663487 7.96895425 -10 11 C-10.99 10.67 -11.98 10.34 -13 10 C-11.3970551 8.70681744 -9.79259858 7.41550844 -8.1875 6.125 C-7.29417969 5.40570313 -6.40085937 4.68640625 -5.48046875 3.9453125 C-3 2 -3 2 0 0 Z " fill="#2D2D2D" transform="translate(285,470)"/>
<path d="M0 0 C2.64752004 2.57784846 4.94432065 4.91648098 7 8 C6.34 8 5.68 8 5 8 C4.67 8.66 4.34 9.32 4 10 C4 9.34 4 8.68 4 8 C3.34 8 2.68 8 2 8 C1.67 7.01 1.34 6.02 1 5 C0.34 4.67 -0.32 4.34 -1 4 C-0.67 2.68 -0.34 1.36 0 0 Z " fill="#D6D6D6" transform="translate(602,172)"/>
<path d="M0 0 C1.32 0.33 2.64 0.66 4 1 C0.37 3.31 -3.26 5.62 -7 8 C-7.66 7.01 -8.32 6.02 -9 5 C-7.88625 4.54625 -6.7725 4.0925 -5.625 3.625 C-2.03800992 2.27534014 -2.03800992 2.27534014 0 0 Z " fill="#E0E0E0" transform="translate(441,70)"/>
<path d="M0 0 C0.99 0.99 1.98 1.98 3 3 C0.36 4.65 -2.28 6.3 -5 8 C-5.33 7.01 -5.66 6.02 -6 5 C-5.01 4.67 -4.02 4.34 -3 4 C-2.67 3.01 -2.34 2.02 -2 1 C-1.34 0.67 -0.68 0.34 0 0 Z " fill="#E6E6E6" transform="translate(331,40)"/>
<path d="M0 0 C0.66 0.33 1.32 0.66 2 1 C2 1.66 2 2.32 2 3 C0.3603125 3.6496875 0.3603125 3.6496875 -1.3125 4.3125 C-4.09408793 5.49495641 -6.06361939 6.60800043 -8 9 C-8.99 8.67 -9.98 8.34 -11 8 C-7.37 5.36 -3.74 2.72 0 0 Z " fill="#202020" transform="translate(341,37)"/>
<path d="M0 0 C0.33 0.66 0.66 1.32 1 2 C0.29296875 3.91015625 0.29296875 3.91015625 -0.8125 6.0625 C-1.16957031 6.77535156 -1.52664063 7.48820313 -1.89453125 8.22265625 C-3 10 -3 10 -5 11 C-5.66 10.67 -6.32 10.34 -7 10 C-5.33248852 6.05860922 -2.77289351 3.2107188 0 0 Z " fill="#CACACA" transform="translate(643,894)"/>
<path d="M0 0 C0.33 0.66 0.66 1.32 1 2 C1.825 2.28875 2.65 2.5775 3.5 2.875 C6 4 6 4 6.8125 6.125 C6.874375 6.74375 6.93625 7.3625 7 8 C4.69 7.34 2.38 6.68 0 6 C-1.125 2.25 -1.125 2.25 0 0 Z " fill="#D4D4D4" transform="translate(35,687)"/>
<path d="M0 0 C0.33 0.99 0.66 1.98 1 3 C-1.80804268 5.96404505 -4.18315774 8.44499019 -8 10 C-5.83735988 6.01618925 -3.28788824 3.11016455 0 0 Z " fill="#D8D8D8" transform="translate(247,606)"/>
<path d="M0 0 C0.99 0.33 1.98 0.66 3 1 C1.515 3.475 1.515 3.475 0 6 C-0.99 5.67 -1.98 5.34 -3 5 C-5.14255793 5.38932856 -5.14255793 5.38932856 -7 6 C-4.74259377 3.66475218 -2.7194239 1.81294927 0 0 Z " fill="#E3E3E3" transform="translate(510,525)"/>
<path d="M0 0 C0.66 0.66 1.32 1.32 2 2 C1.65960792 5.40392082 0.04742235 7.3554128 -2 10 C-2.33 10.99 -2.66 11.98 -3 13 C-3.66 13 -4.32 13 -5 13 C-3.78184562 8.31479085 -2.30440013 4.29456388 0 0 Z " fill="#262626" transform="translate(141,205)"/>
<path d="M0 0 C0.66 0.33 1.32 0.66 2 1 C-0.0625 3.5 -0.0625 3.5 -3 6 C-6.8125 6.3125 -6.8125 6.3125 -10 6 C-6.87511433 3.47605388 -3.68685613 1.60298093 0 0 Z " fill="#DBDBDB" transform="translate(291,104)"/>
<path d="M0 0 C2.475 0.495 2.475 0.495 5 1 C5 6.61 5 12.22 5 18 C4.67 18 4.34 18 4 18 C3.96261719 17.20335937 3.92523437 16.40671875 3.88671875 15.5859375 C3.52043059 9.68223426 3.21397206 5.03056497 0 0 Z " fill="#1B1B1B" transform="translate(675,736)"/>
<path d="M0 0 C1.32 0.33 2.64 0.66 4 1 C4.25 7.625 4.25 7.625 2 11 C0.80712589 7.12315913 0 4.08378077 0 0 Z " fill="#202020" transform="translate(123,400)"/>
<path d="M0 0 C0.66 0 1.32 0 2 0 C3.39195915 4.17587745 1.82323219 6.13474776 0 10 C-2 7 -2 7 -1.6875 3.875 C-1 1 -1 1 0 0 Z " fill="#E8E8E8" transform="translate(140,200)"/>
<path d="M0 0 C2.31 0.66 4.62 1.32 7 2 C6.67 4.31 6.34 6.62 6 9 C3.59927045 6.11912454 1.52708963 3.43595166 0 0 Z " fill="#E2E2E2" transform="translate(643,174)"/>
<path d="M0 0 C1.98 1.65 3.96 3.3 6 5 C5.67 5.99 5.34 6.98 5 8 C3.68 8 2.36 8 1 8 C0 2.25 0 2.25 0 0 Z " fill="#E3E3E3" transform="translate(584,152)"/>
<path d="M0 0 C0.33 0.66 0.66 1.32 1 2 C1.66 2 2.32 2 3 2 C3 2.99 3 3.98 3 5 C2.38125 5.28875 1.7625 5.5775 1.125 5.875 C-1.13325765 6.93720042 -1.13325765 6.93720042 -3 9 C-3 4.72290301 -2.29379749 3.44069624 0 0 Z " fill="#D9D9D9" transform="translate(524,47)"/>
<path d="M0 0 C0.33 1.32 0.66 2.64 1 4 C0.01 4.66 -0.98 5.32 -2 6 C-2.33 6.99 -2.66 7.98 -3 9 C-4.875 10.25 -4.875 10.25 -7 11 C-7.99 10.67 -8.98 10.34 -10 10 C-9.44570313 9.52949219 -8.89140625 9.05898438 -8.3203125 8.57421875 C-7.59585937 7.95160156 -6.87140625 7.32898437 -6.125 6.6875 C-5.40570313 6.07261719 -4.68640625 5.45773438 -3.9453125 4.82421875 C-1.80820669 2.9587676 -1.80820669 2.9587676 0 0 Z " fill="#282828" transform="translate(489,36)"/>
<path d="M0 0 C0.33 0.99 0.66 1.98 1 3 C0.04504326 4.69287785 -0.9590934 6.35857037 -2 8 C-2.69579454 10.19130534 -2.69579454 10.19130534 -3 12 C-4.32 12.33 -5.64 12.66 -7 13 C-5.35821735 8.22390502 -2.73453298 4.20617096 0 0 Z " fill="#D8D8D8" transform="translate(683,841)"/>
<path d="M0 0 C0.66 0.99 1.32 1.98 2 3 C1.54625 3.37125 1.0925 3.7425 0.625 4.125 C-1.23211503 6.0193929 -1.23211503 6.0193929 -2 9.125 C-2.33 10.07375 -2.66 11.0225 -3 12 C-3.99 12.33 -4.98 12.66 -6 13 C-4.58707905 8.1725201 -2.57025846 4.2837641 0 0 Z " fill="#292929" transform="translate(10,668)"/>
<path d="M0 0 C-0.33 0.99 -0.66 1.98 -1 3 C-1.66 3 -2.32 3 -3 3 C-3.33 3.99 -3.66 4.98 -4 6 C-5.98 5.34 -7.96 4.68 -10 4 C-6.86268382 1.90845588 -3.85464592 0 0 0 Z " fill="#272727" transform="translate(508,546)"/>
<path d="M0 0 C0.33 0.99 0.66 1.98 1 3 C-0.07421875 4.7890625 -0.07421875 4.7890625 -1.6875 6.625 C-2.20699219 7.23601562 -2.72648437 7.84703125 -3.26171875 8.4765625 C-5.181038 10.15866252 -6.50835704 10.59829721 -9 11 C-8.67 10.34 -8.34 9.68 -8 9 C-7.34 9 -6.68 9 -6 9 C-5.7525 8.443125 -5.505 7.88625 -5.25 7.3125 C-3.78393985 4.60028873 -1.97010529 2.36412635 0 0 Z " fill="#C5C5C5" transform="translate(299,404)"/>
<path d="M0 0 C0.33 0.66 0.66 1.32 1 2 C-0.4375 4.625 -0.4375 4.625 -2 7 C-4.97 6.505 -4.97 6.505 -8 6 C-5.38485683 3.87961365 -2.80362384 1.86908256 0 0 Z " fill="#E4E4E4" transform="translate(329,87)"/>
<path d="M0 0 C2.34914492 2.34914492 2.73140357 3.95679446 3.625 7.125 C3.88539062 8.03507813 4.14578125 8.94515625 4.4140625 9.8828125 C4.70410156 10.93082031 4.70410156 10.93082031 5 12 C4.34 11.67 3.68 11.34 3 11 C3 10.01 3 9.02 3 8 C1.68 8.33 0.36 8.66 -1 9 C-0.7215625 7.824375 -0.7215625 7.824375 -0.4375 6.625 C0.25962266 4.02910225 0.25962266 4.02910225 -1 2 C-0.67 1.34 -0.34 0.68 0 0 Z " fill="#D2D2D2" transform="translate(74,802)"/>
<path d="M0 0 C0.33 1.32 0.66 2.64 1 4 C-1.4375 6.75 -1.4375 6.75 -4 9 C-4.99 8.67 -5.98 8.34 -7 8 C-4.69 5.36 -2.38 2.72 0 0 Z " fill="#DCDCDC" transform="translate(66,648)"/>
<path d="M0 0 C-0.66 0.66 -1.32 1.32 -2 2 C-2 2.33 -2 2.66 -2 3 C-5.3 2.67 -8.6 2.34 -12 2 C-12 1.67 -12 1.34 -12 1 C-3.96428571 -1.27678571 -3.96428571 -1.27678571 0 0 Z " fill="#DCDCDC" transform="translate(494,585)"/>
<path d="M0 0 C3.5 0.25 3.5 0.25 5.5 2.25 C4.51 2.25 3.52 2.25 2.5 2.25 C2.5 2.91 2.5 3.57 2.5 4.25 C-0.14 3.59 -2.78 2.93 -5.5 2.25 C-3.5 0.25 -3.5 0.25 0 0 Z " fill="#DFDFDF" transform="translate(207.5,583.75)"/>
<path d="M0 0 C-3.4352048 2.29013653 -4.985331 2.17842973 -9 2 C-9.33 1.01 -9.66 0.02 -10 -1 C-5.92224809 -1.9267618 -3.57818963 -2.33958553 0 0 Z " fill="#E5E5E5" transform="translate(474,509)"/>
<path d="M0 0 C2.31 0 4.62 0 7 0 C7.33 0.66 7.66 1.32 8 2 C4.49223216 3.60355101 1.85645121 4.22036864 -2 4 C-1.34 2.68 -0.68 1.36 0 0 Z " fill="#181818" transform="translate(549,420)"/>
<path d="M0 0 C1.04702186 3.7264085 1.07442057 7.13013042 1 11 C0.01 11.495 0.01 11.495 -1 12 C-1.66 12.99 -2.32 13.98 -3 15 C-2.35812082 9.86496656 -1.31727753 5.0056546 0 0 Z " fill="#C7C7C7" transform="translate(158,251)"/>
<path d="M0 0 C1.98 0 3.96 0 6 0 C6 0.99 6 1.98 6 3 C3.69 3.33 1.38 3.66 -1 4 C-0.67 2.68 -0.34 1.36 0 0 Z " fill="#EEEEEE" transform="translate(418,0)"/>
<path d="M0 0 C2 0 2 0 3.625 1.5 C4.07875 1.995 4.5325 2.49 5 3 C5.33 2.34 5.66 1.68 6 1 C6.33 2.98 6.66 4.96 7 7 C5.1875 6.875 5.1875 6.875 3 6 C1.25 2.9375 1.25 2.9375 0 0 Z " fill="#1F1F1F" transform="translate(593,712)"/>
<path d="M0 0 C1.32 1.65 2.64 3.3 4 5 C3.34 6.32 2.68 7.64 2 9 C1.01 8.67 0.02 8.34 -1 8 C-0.67 5.36 -0.34 2.72 0 0 Z " fill="#E4E4E4" transform="translate(547,620)"/>
<path d="M0 0 C-0.625 1.9375 -0.625 1.9375 -2 4 C-5.125 4.75 -5.125 4.75 -8 5 C-8 4.34 -8 3.68 -8 3 C-7.34 3 -6.68 3 -6 3 C-6 2.34 -6 1.68 -6 1 C-4 0 -4 0 0 0 Z " fill="#DCDCDC" transform="translate(593,613)"/>
<path d="M0 0 C0.66 0.33 1.32 0.66 2 1 C2 1.66 2 2.32 2 3 C1.34 3 0.68 3 0 3 C0 3.66 0 4.32 0 5 C-3.96 4.67 -7.92 4.34 -12 4 C-12 3.67 -12 3.34 -12 3 C-11.38511719 2.95101562 -10.77023438 2.90203125 -10.13671875 2.8515625 C-9.32847656 2.77679687 -8.52023438 2.70203125 -7.6875 2.625 C-6.88699219 2.55539062 -6.08648437 2.48578125 -5.26171875 2.4140625 C-2.72775559 2.10435574 -2.72775559 2.10435574 0 0 Z " fill="#434343" transform="translate(222,585)"/>
<path d="M0 0 C2.31 0 4.62 0 7 0 C6 3 6 3 2.9375 4.6875 C1.968125 5.120625 0.99875 5.55375 0 6 C0.185625 5.38125 0.37125 4.7625 0.5625 4.125 C1.23686176 1.95839822 1.23686176 1.95839822 0 0 Z " fill="#CBCBCB" transform="translate(498,499)"/>
<path d="M0 0 C0.33 0 0.66 0 1 0 C1.63019694 9.17286652 1.63019694 9.17286652 -1 12.625 C-1.66 13.07875 -2.32 13.5325 -3 14 C-3.33 12.35 -3.66 10.7 -4 9 C-2.68 9 -1.36 9 0 9 C0 6.03 0 3.06 0 0 Z " fill="#D0D0D0" transform="translate(261,334)"/>
<path d="M0 0 C2.3125 0.1875 2.3125 0.1875 4 1 C2.50260417 2.23697917 1.00520833 3.47395833 -0.4921875 4.7109375 C-1.71051161 5.75250992 -2.86660097 6.86660097 -4 8 C-4.33 7.01 -4.66 6.02 -5 5 C-2.75 2.4375 -2.75 2.4375 0 0 Z " fill="#D7D7D7" transform="translate(236,315)"/>
<path d="M0 0 C1.485 0.99 1.485 0.99 3 2 C3.6875 5.625 3.6875 5.625 4 9 C3.01 9.495 3.01 9.495 2 10 C1.46987262 8.71211992 0.9511671 7.41953322 0.4375 6.125 C0.14746094 5.40570313 -0.14257812 4.68640625 -0.44140625 3.9453125 C-1 2 -1 2 0 0 Z " fill="#121212" transform="translate(634,217)"/>
<path d="M0 0 C0.66 0.33 1.32 0.66 2 1 C0.66073876 5.01778372 -1.49134469 5.78023848 -5 8 C-5.66 8.66 -6.32 9.32 -7 10 C-7 7 -7 7 -5.46875 5.17578125 C-4.8190625 4.56089844 -4.169375 3.94601562 -3.5 3.3125 C-2.8503125 2.68988281 -2.200625 2.06726563 -1.53125 1.42578125 C-0.77328125 0.72001953 -0.77328125 0.72001953 0 0 Z " fill="#1D1D1D" transform="translate(101,922)"/>
<path d="M0 0 C1.98 0.66 3.96 1.32 6 2 C5.67 3.32 5.34 4.64 5 6 C4.34 6 3.68 6 3 6 C1.61767557 4.37373596 0.28062485 2.7074998 -1 1 C-0.67 0.67 -0.34 0.34 0 0 Z " fill="#E4E4E4" transform="translate(677,922)"/>
<path d="M0 0 C-4.46236469 1.80619523 -7.31034294 2.11658501 -12 1 C-7.39518076 -1.46686745 -4.70856975 -2.85877449 0 0 Z " fill="#202020" transform="translate(112,733)"/>
<path d="M0 0 C0.33 0 0.66 0 1 0 C1 3.63 1 7.26 1 11 C0.01 11.33 -0.98 11.66 -2 12 C-1.85831863 10.56208484 -1.71148957 9.1246763 -1.5625 7.6875 C-1.48128906 6.88699219 -1.40007812 6.08648438 -1.31640625 5.26171875 C-1 3 -1 3 0 0 Z " fill="#2C2C2C" transform="translate(2,683)"/>
<path d="M0 0 C0.80824219 0.11085938 1.61648438 0.22171875 2.44921875 0.3359375 C3.37154297 0.47902344 3.37154297 0.47902344 4.3125 0.625 C-0.06758443 3.20964442 -2.79875113 2.43979148 -7.6875 1.625 C-4.33422361 -0.61051759 -3.78006343 -0.54783528 0 0 Z " fill="#CDCDCD" transform="translate(505.6875,581.375)"/>
<path d="M0 0 C0.99 0 1.98 0 3 0 C3 0.66 3 1.32 3 2 C1.25 3.5078125 1.25 3.5078125 -1 5.125 C-1.7425 5.66382813 -2.485 6.20265625 -3.25 6.7578125 C-3.8275 7.16773438 -4.405 7.57765625 -5 8 C-5.66 7.67 -6.32 7.34 -7 7 C-6.38125 6.7525 -5.7625 6.505 -5.125 6.25 C-2.62985717 4.78226892 -2.09872287 3.62003145 -1 1 C-0.67 0.67 -0.34 0.34 0 0 Z " fill="#2F2F2F" transform="translate(242,566)"/>
<path d="M0 0 C2.475 0.99 2.475 0.99 5 2 C5 5 5 5 4 8 C2.35 6.02 0.7 4.04 -1 2 C-0.67 1.34 -0.34 0.68 0 0 Z " fill="#D5D5D5" transform="translate(569,312)"/>
<path d="M0 0 C-0.33 0.66 -0.66 1.32 -1 2 C-4.63 1.34 -8.26 0.68 -12 0 C-12 -0.33 -12 -0.66 -12 -1 C-7.48281619 -2.36884358 -4.41225737 -1.47075246 0 0 Z " fill="#D7D7D7" transform="translate(561,307)"/>
<path d="M0 0 C0.66 0.33 1.32 0.66 2 1 C2 1.99 2 2.98 2 4 C0.02 4.99 -1.96 5.98 -4 7 C-4 5.68 -4 4.36 -4 3 C-2 1.25 -2 1.25 0 0 Z " fill="#131313" transform="translate(333,80)"/>
<path d="M0 0 C1 3 1 3 0 6 C-2.97 5.505 -2.97 5.505 -6 5 C-2.25 1.125 -2.25 1.125 0 0 Z " fill="#1D1D1D" transform="translate(436,76)"/>
<path d="M0 0 C0.66 0.33 1.32 0.66 2 1 C0.50260417 2.23697917 -0.99479167 3.47395833 -2.4921875 4.7109375 C-3.71051161 5.75250992 -4.86660097 6.86660097 -6 8 C-7.32 7.67 -8.64 7.34 -10 7 C-6.7 4.69 -3.4 2.38 0 0 Z " fill="#333333" transform="translate(466,56)"/>
<path d="M0 0 C0.66 0.33 1.32 0.66 2 1 C1.67 2.65 1.34 4.3 1 6 C-1.31 5.34 -3.62 4.68 -6 4 C-4.03617993 2.49440461 -2.21736634 1.10868317 0 0 Z " fill="#DDDDDD" transform="translate(382,49)"/>
<path d="M0 0 C1.7074998 1.28062485 3.37373596 2.61767557 5 4 C5 4.66 5 5.32 5 6 C2.36 6 -0.28 6 -3 6 C-2.505 5.566875 -2.01 5.13375 -1.5 4.6875 C0.33218192 3.00259517 0.33218192 3.00259517 0 0 Z " fill="#CDCDCD" transform="translate(282,943)"/>
<path d="M0 0 C1 2 1 2 0.0625 5.125 C-0.288125 6.07375 -0.63875 7.0225 -1 8 C-2.32 7.67 -3.64 7.34 -5 7 C-3.35 4.69 -1.7 2.38 0 0 Z " fill="#D3D3D3" transform="translate(675,854)"/>
<path d="M0 0 C1.14926266 0.95421808 2.29430541 1.91352045 3.4375 2.875 C4.07558594 3.40867187 4.71367187 3.94234375 5.37109375 4.4921875 C7 6 7 6 8 8 C6.68 8 5.36 8 4 8 C0 3.88888889 0 3.88888889 0 0 Z " fill="#1B1B1B" transform="translate(205,851)"/>
<path d="M0 0 C3.625 0.375 3.625 0.375 7 1 C7 1.66 7 2.32 7 3 C7.99 3.33 8.98 3.66 10 4 C6.875 3.47916667 3.75 2.95833333 0.625 2.4375 C-0.24125 2.293125 -1.1075 2.14875 -2 2 C-1.34 1.34 -0.68 0.68 0 0 Z " fill="#D5D5D5" transform="translate(62,698)"/>
<path d="M0 0 C0.99 1.32 1.98 2.64 3 4 C2.34 4 1.68 4 1 4 C0.67 4.99 0.34 5.98 0 7 C-1.32 6.34 -2.64 5.68 -4 5 C-2.68 3.35 -1.36 1.7 0 0 Z " fill="#E5E5E5" transform="translate(58,657)"/>
<path d="M0 0 C2.92879371 0.62759865 5.36095629 1.58622659 8 3 C7.67 3.66 7.34 4.32 7 5 C4.69 4.34 2.38 3.68 0 3 C0 2.01 0 1.02 0 0 Z " fill="#D8D8D8" transform="translate(667,576)"/>
<path d="M0 0 C0.598125 0.33 1.19625 0.66 1.8125 1 C4.05386471 2.20787988 4.05386471 2.20787988 7 2 C7 3.32 7 4.64 7 6 C3.62496331 4.8141763 1.35277269 3.72426311 -1 1 C-0.67 0.67 -0.34 0.34 0 0 Z " fill="#DDDDDD" transform="translate(254,522)"/>
<path d="M0 0 C4.875 4.625 4.875 4.625 6 8 C4.35 7.67 2.7 7.34 1 7 C1 6.01 1 5.02 1 4 C0.34 3.67 -0.32 3.34 -1 3 C-0.67 2.01 -0.34 1.02 0 0 Z " fill="#D6D6D6" transform="translate(266,502)"/>
<path d="M0 0 C0.66 0.33 1.32 0.66 2 1 C0.44499019 4.81684226 -2.03595495 7.19195732 -5 10 C-5.66 9.67 -6.32 9.34 -7 9 C-6.57847656 8.51789063 -6.15695312 8.03578125 -5.72265625 7.5390625 C-5.17480469 6.90742188 -4.62695312 6.27578125 -4.0625 5.625 C-3.51722656 4.99851562 -2.97195313 4.37203125 -2.41015625 3.7265625 C-0.93041376 2.04367666 -0.93041376 2.04367666 0 0 Z " fill="#BFBFBF" transform="translate(630,494)"/>
<path d="M0 0 C0.33 0.99 0.66 1.98 1 3 C-1.57213134 4.61949011 -2.67669159 5.04408751 -5.75 4.625 C-6.4925 4.41875 -7.235 4.2125 -8 4 C-2 0 -2 0 0 0 Z " fill="#212121" transform="translate(354,433)"/>
<path d="M0 0 C1 4 1 4 0 6 C-0.66 6 -1.32 6 -2 6 C-2.33 6.66 -2.66 7.32 -3 8 C-3.99 8 -4.98 8 -6 8 C-4.02 5.36 -2.04 2.72 0 0 Z " fill="#E0E0E0" transform="translate(214,158)"/>
<path d="M0 0 C2.31 1.98 4.62 3.96 7 6 C6.34 6.66 5.68 7.32 5 8 C2.21611025 6.29374499 1.14615794 5.52373261 0.25 2.3125 C0.1675 1.549375 0.085 0.78625 0 0 Z " fill="#DDDDDD" transform="translate(575,144)"/>
<path d="M0 0 C3.65316671 1.24976756 4.78065836 1.67098753 7 5 C6.34 5.66 5.68 6.32 5 7 C3.02 5.35 1.04 3.7 -1 2 C-0.67 1.34 -0.34 0.68 0 0 Z " fill="#E6E6E6" transform="translate(558,132)"/>
<path d="M0 0 C1.79323253 0.28187936 3.58457126 0.5758281 5.375 0.875 C6.37273437 1.03742188 7.37046875 1.19984375 8.3984375 1.3671875 C11 2 11 2 13 4 C10.03 4 7.06 4 4 4 C4 3.34 4 2.68 4 2 C2.68 1.34 1.36 0.68 0 0 Z " fill="#CBCBCB" transform="translate(461,86)"/>
<path d="M0 0 C2.31 0.66 4.62 1.32 7 2 C6 4 6 4 4.1875 4.8125 C2 5 2 5 -0.25 3.5625 C-0.8275 3.046875 -1.405 2.53125 -2 2 C-1.34 1.34 -0.68 0.68 0 0 Z " fill="#141414" transform="translate(302,915)"/>
<path d="M0 0 C2.00720923 0.28674418 4.0085944 0.61866701 6 1 C3.31158141 3.25245881 1.35358125 4.88213958 -2 6 C-1.125 1.125 -1.125 1.125 0 0 Z " fill="#E0E0E0" transform="translate(513,898)"/>
<path d="M0 0 C6.64615385 1.47692308 6.64615385 1.47692308 8.4375 4.125 C8.7159375 5.053125 8.7159375 5.053125 9 6 C5.06326356 4.68775452 2.77280706 3.08089673 0 0 Z " fill="#D6D6D6" transform="translate(248,885)"/>
<path d="M0 0 C2.70165032 2.70165032 2 4.29811832 2 8 C0.35 6.35 -1.3 4.7 -3 3 C-2.01 2.01 -1.02 1.02 0 0 Z " fill="#EDEDED" transform="translate(190,828)"/>
<path d="M0 0 C0.99 0.33 1.98 0.66 3 1 C2.25 3.4375 2.25 3.4375 1 6 C-1 6.9375 -1 6.9375 -3 7 C-3.66 6.34 -4.32 5.68 -5 5 C-3.35 4.34 -1.7 3.68 0 3 C0 2.01 0 1.02 0 0 Z " fill="#DDDDDD" transform="translate(146,719)"/>
<path d="M0 0 C0.66 0.66 1.32 1.32 2 2 C0.38405168 4.04119788 -1.2856382 6.04072937 -3 8 C-3.66 8 -4.32 8 -5 8 C-4.34 5.69 -3.68 3.38 -3 1 C-2.34 1.33 -1.68 1.66 -1 2 C-0.67 1.34 -0.34 0.68 0 0 Z " fill="#1F1F1F" transform="translate(78,632)"/>
<path d="M0 0 C2.31 0.66 4.62 1.32 7 2 C7 2.99 7 3.98 7 5 C4.03 4.505 4.03 4.505 1 4 C0.67 2.68 0.34 1.36 0 0 Z " fill="#E8E8E8" transform="translate(334,546)"/>
<path d="M0 0 C2.9375 1.3125 2.9375 1.3125 3.8125 3.4375 C3.874375 4.365625 3.874375 4.365625 3.9375 5.3125 C0.47824837 4.0633258 -2.20943203 2.63722205 -5.0625 0.3125 C-3.0625 -0.6875 -3.0625 -0.6875 0 0 Z " fill="#DDDDDD" transform="translate(271.0625,530.6875)"/>
<path d="M0 0 C1.32 0.66 2.64 1.32 4 2 C2.35 3.32 0.7 4.64 -1 6 C-1.66 5.01 -2.32 4.02 -3 3 C-2.01 2.01 -1.02 1.02 0 0 Z " fill="#E6E6E6" transform="translate(546,521)"/>
<path d="M0 0 C0.66 0.33 1.32 0.66 2 1 C0.02 1.99 0.02 1.99 -2 3 C-2 3.99 -2 4.98 -2 6 C-2.99 6 -3.98 6 -5 6 C-5.33 5.01 -5.66 4.02 -6 3 C-4.03533587 1.93224776 -2.03144641 0.93446535 0 0 Z " fill="#232323" transform="translate(481,513)"/>
<path d="M0 0 C0.33 0.66 0.66 1.32 1 2 C0.06553465 4.03144641 -0.93224776 6.03533587 -2 8 C-2.66 8 -3.32 8 -4 8 C-4.33 7.01 -4.66 6.02 -5 5 C-3.35 3.35 -1.7 1.7 0 0 Z " fill="#E6E6E6" transform="translate(623,504)"/>
<path d="M0 0 C0 3.12900213 -0.42451317 4.37418862 -2 7 C-2.99 7.495 -2.99 7.495 -4 8 C-4.66 7.34 -5.32 6.68 -6 6 C-4.02 4.02 -2.04 2.04 0 0 Z " fill="#262626" transform="translate(592,487)"/>
<path d="M0 0 C2.88437779 1.29299694 4.87219421 2.65941363 7 5 C5.68 5.33 4.36 5.66 3 6 C0 2.25 0 2.25 0 0 Z " fill="#1A1A1A" transform="translate(529,480)"/>
<path d="M0 0 C2.3125 -0.25 2.3125 -0.25 5 0 C6.8125 2 6.8125 2 8 4 C7.34 4.66 6.68 5.32 6 6 C3.97945196 4.35830472 1.97956942 2.69088222 0 1 C0 0.67 0 0.34 0 0 Z " fill="#1E1E1E" transform="translate(568,138)"/>
<path d="M0 0 C-0.33 0.66 -0.66 1.32 -1 2 C-2.33076989 2.34342449 -3.66431979 2.67619874 -5 3 C-5.66 3.66 -6.32 4.32 -7 5 C-7.99 4.34 -8.98 3.68 -10 3 C-3.375 -1.125 -3.375 -1.125 0 0 Z " fill="#E0E0E0" transform="translate(278,113)"/>
<path d="M0 0 C1.32 0.66 2.64 1.32 4 2 C3.01 2.99 2.02 3.98 1 5 C-1.475 4.01 -1.475 4.01 -4 3 C-2.68 2.01 -1.36 1.02 0 0 Z " fill="#1A1A1A" transform="translate(294,67)"/>
<path d="M0 0 C1.65 1.65 3.3 3.3 5 5 C4.34 5 3.68 5 3 5 C2.67 5.66 2.34 6.32 2 7 C0.4375 4.625 0.4375 4.625 -1 2 C-0.67 1.34 -0.34 0.68 0 0 Z " fill="#D7D7D7" transform="translate(90,957)"/>
<path d="M0 0 C0.66 0.33 1.32 0.66 2 1 C-0.1875 3.0625 -0.1875 3.0625 -3 5 C-5.8125 4.75 -5.8125 4.75 -8 4 C-5.31143836 2.20762558 -3.0466145 1.01553817 0 0 Z " fill="#BCBCBC" transform="translate(194,914)"/>
<path d="M0 0 C2.69082872 0.17635452 5.32851446 0.61835921 8 1 C7.67 1.99 7.34 2.98 7 4 C3.62537285 3.45276317 1.91765 2.9451 -1 1 C-0.67 0.67 -0.34 0.34 0 0 Z " fill="#212121" transform="translate(588,915)"/>
<path d="M0 0 C1.89213369 2.38573379 3.02391783 4.07175348 4 7 C3.34 7.66 2.68 8.32 2 9 C1.34 8.67 0.68 8.34 0 8 C0 5.36 0 2.72 0 0 Z " fill="#E0E0E0" transform="translate(0,702)"/>
<path d="M0 0 C2.89932357 2.39509338 3.50168276 4.31245243 4 8 C2.35 7.01 0.7 6.02 -1 5 C-0.67 3.35 -0.34 1.7 0 0 Z " fill="#D1D1D1" transform="translate(578,680)"/>
<path d="M0 0 C0.33 0 0.66 0 1 0 C1.33 3.3 1.66 6.6 2 10 C1.01 10.66 0.02 11.32 -1 12 C-1.08159574 7.83861737 -0.98248524 4.0527516 0 0 Z " fill="#2A2A2A" transform="translate(597,674)"/>
<path d="M0 0 C-2.91708924 1.98362069 -4.12380904 1.9876191 -7.75 1.625 C-8.8225 1.41875 -9.895 1.2125 -11 1 C-7.2297564 -1.56376565 -4.32597804 -0.83191885 0 0 Z " fill="#E5E5E5" transform="translate(306,582)"/>
<path d="M0 0 C-2.3125 2.0625 -2.3125 2.0625 -5 4 C-5.99 3.67 -6.98 3.34 -8 3 C-8 2.34 -8 1.68 -8 1 C-4.93251126 -0.86240388 -3.40254489 -1.2151946 0 0 Z " fill="#DBDBDB" transform="translate(480,544)"/>
<path d="M0 0 C0.639375 0.2475 1.27875 0.495 1.9375 0.75 C2.2675 1.74 2.5975 2.73 2.9375 3.75 C-1.0625 3.75 -1.0625 3.75 -2.8125 2.25 C-3.225 1.755 -3.6375 1.26 -4.0625 0.75 C-2.0625 -0.25 -2.0625 -0.25 0 0 Z " fill="#E2E2E2" transform="translate(245.0625,514.25)"/>
<path d="M0 0 C-3.42094242 2.28062828 -4.68187222 2.21925007 -8.6875 2.125 C-10.17830078 2.09792969 -10.17830078 2.09792969 -11.69921875 2.0703125 C-12.45847656 2.04710937 -13.21773438 2.02390625 -14 2 C-14 1.67 -14 1.34 -14 1 C-12.41913952 0.63495397 -10.83516093 0.28339494 -9.25 -0.0625 C-8.36828125 -0.25972656 -7.4865625 -0.45695312 -6.578125 -0.66015625 C-4.01320972 -0.99825872 -2.42908361 -0.81158635 0 0 Z " fill="#C4C4C4" transform="translate(454,512)"/>
<path d="M0 0 C0.66 0.33 1.32 0.66 2 1 C0.93453047 3.13093906 -0.29159719 4.36587557 -2 6 C-2.99 5.67 -3.98 5.34 -5 5 C-4.1875 3.0625 -4.1875 3.0625 -3 1 C-2.01 0.67 -1.02 0.34 0 0 Z " fill="#191919" transform="translate(499,504)"/>
<path d="M0 0 C1.65 0 3.3 0 5 0 C5 1.66666667 5 3.33333333 5 5 C3.0625 4.1875 3.0625 4.1875 1 3 C0.67 2.01 0.34 1.02 0 0 Z " fill="#BFBFBF" transform="translate(293,496)"/>
<path d="M0 0 C0.33 0 0.66 0 1 0 C1.33 2.31 1.66 4.62 2 7 C1.34 7 0.68 7 0 7 C0 7.99 0 8.98 0 10 C-0.66 10 -1.32 10 -2 10 C-1.34 6.7 -0.68 3.4 0 0 Z " fill="#C7C7C7" transform="translate(676,405)"/>
<path d="M0 0 C0.99 0.33 1.98 0.66 3 1 C1.35 2.65 -0.3 4.3 -2 6 C-2.66 5.34 -3.32 4.68 -4 4 C-2.68 2.68 -1.36 1.36 0 0 Z " fill="#0F0F0F" transform="translate(293,408)"/>
<path d="M0 0 C1.98 0 3.96 0 6 0 C6 0.66 6 1.32 6 2 C3 4 3 4 0 4 C0 2.68 0 1.36 0 0 Z " fill="#DEDEDE" transform="translate(531,347)"/>
<path d="M0 0 C1.32 0.66 2.64 1.32 4 2 C0.25 5 0.25 5 -2 5 C-2.33 4.01 -2.66 3.02 -3 2 C-2.01 1.34 -1.02 0.68 0 0 Z " fill="#141414" transform="translate(281,105)"/>
<path d="M0 0 C-0.33 0.99 -0.66 1.98 -1 3 C-1.99 3.33 -2.98 3.66 -4 4 C-4.33 4.66 -4.66 5.32 -5 6 C-6.32 5.34 -7.64 4.68 -9 4 C-2.25 0 -2.25 0 0 0 Z " fill="#292929" transform="translate(288,71)"/>
<path d="M0 0 C-5.75 3.875 -5.75 3.875 -8 5 C-8 4.34 -8 3.68 -8 3 C-8.66 2.67 -9.32 2.34 -10 2 C-8.71211992 1.46987262 -7.41953322 0.9511671 -6.125 0.4375 C-5.40570313 0.14746094 -4.68640625 -0.14257812 -3.9453125 -0.44140625 C-2 -1 -2 -1 0 0 Z " fill="#2E2E2E" transform="translate(474,922)"/>
<path d="M0 0 C3.465 1.98 3.465 1.98 7 4 C6.34 4.66 5.68 5.32 5 6 C2.375 5.625 2.375 5.625 0 5 C0 3.35 0 1.7 0 0 Z " fill="#E5E5E5" transform="translate(241,913)"/>
<path d="M0 0 C0.66 0.33 1.32 0.66 2 1 C0.84826645 3.46800047 -0.04783565 5.04783565 -2 7 C-3.32 6.34 -4.64 5.68 -6 5 C-4.02 3.35 -2.04 1.7 0 0 Z " fill="#D0D0D0" transform="translate(544,904)"/>
<path d="M0 0 C0.66 0.33 1.32 0.66 2 1 C1.67 2.65 1.34 4.3 1 6 C0.34 6 -0.32 6 -1 6 C-1 6.99 -1 7.98 -1 9 C-1.66 9 -2.32 9 -3 9 C-2.01 6.03 -1.02 3.06 0 0 Z " fill="#BEBEBE" transform="translate(697,812)"/>
<path d="M0 0 C0.66 1.32 1.32 2.64 2 4 C1.67 4 1.34 4 1 4 C0.34 5.98 -0.32 7.96 -1 10 C-1.66 10 -2.32 10 -3 10 C-2.01 6.7 -1.02 3.4 0 0 Z " fill="#D3D3D3" transform="translate(701,802)"/>
<path d="M0 0 C1.125 1.6875 1.125 1.6875 2 4 C1.125 6.75 1.125 6.75 0 9 C-0.66 8.67 -1.32 8.34 -2 8 C-1.125 2.25 -1.125 2.25 0 0 Z " fill="#ECECEC" transform="translate(667,794)"/>
<path d="M0 0 C0.33 1.32 0.66 2.64 1 4 C-2.3 3.34 -5.6 2.68 -9 2 C-5.23312136 0.11656068 -3.97041037 -0.22057835 0 0 Z " fill="#363636" transform="translate(668,730)"/>
<path d="M0 0 C0.66 0.33 1.32 0.66 2 1 C0.35 2.98 -1.3 4.96 -3 7 C-3.66 6.67 -4.32 6.34 -5 6 C-3.63016497 2.83884224 -3.0109362 2.0072908 0 0 Z " fill="#212121" transform="translate(86,625)"/>
<path d="M0 0 C-0.33 1.65 -0.66 3.3 -1 5 C-1.66 4.67 -2.32 4.34 -3 4 C-3.66 4.66 -4.32 5.32 -5 6 C-5.33 5.34 -5.66 4.68 -6 4 C-2.25 0 -2.25 0 0 0 Z " fill="#1C1C1C" transform="translate(237,574)"/>
<path d="M0 0 C0.66 0.66 1.32 1.32 2 2 C-4.625 1.25 -4.625 1.25 -8 -1 C-4.59407832 -2.2164006 -3.04320125 -1.92736079 0 0 Z " fill="#B9B9B9" transform="translate(322,553)"/>
<path d="M0 0 C2.64 0.66 5.28 1.32 8 2 C5 4 5 4 2.3125 3.625 C1.549375 3.41875 0.78625 3.2125 0 3 C0 2.01 0 1.02 0 0 Z " fill="#222222" transform="translate(299,547)"/>
<path d="M0 0 C0.99 0.33 1.98 0.66 3 1 C0.94766315 3.2477975 -0.00667261 4.0022242 -3 5 C-3.66 4.34 -4.32 3.68 -5 3 C-2.6875 1.4375 -2.6875 1.4375 0 0 Z " fill="#DBDBDB" transform="translate(501,531)"/>
<path d="M0 0 C4.75 0.875 4.75 0.875 7 2 C6.67 2.66 6.34 3.32 6 4 C4.35 4 2.7 4 1 4 C0.67 2.68 0.34 1.36 0 0 Z " fill="#131313" transform="translate(321,515)"/>
<path d="M0 0 C0.66 0.33 1.32 0.66 2 1 C0.50902342 4.7952131 -1.75700849 6.61042731 -5 9 C-3.50163895 5.88801935 -1.80066242 2.9465385 0 0 Z " fill="#CECECE" transform="translate(645,474)"/>
<path d="M0 0 C4 0 4 0 6 1 C5.34 2.65 4.68 4.3 4 6 C0 1.125 0 1.125 0 0 Z " fill="#E9E9E9" transform="translate(178,448)"/>
<path d="M0 0 C0.94875 0.350625 1.8975 0.70125 2.875 1.0625 C2.875 2.0525 2.875 3.0425 2.875 4.0625 C-2.875 2.3125 -2.875 2.3125 -5.125 0.0625 C-3.125 -0.9375 -3.125 -0.9375 0 0 Z " fill="#D5D5D5" transform="translate(465.125,439.9375)"/>
<path d="M0 0 C4.875 1.75 4.875 1.75 6 4 C5.67 4.66 5.34 5.32 5 6 C4.01 5.67 3.02 5.34 2 5 C0.8125 2.4375 0.8125 2.4375 0 0 Z " fill="#E5E5E5" transform="translate(297,321)"/>
<path d="M0 0 C0.66 0.33 1.32 0.66 2 1 C-0.25 3.5625 -0.25 3.5625 -3 6 C-4.32 5.67 -5.64 5.34 -7 5 C-4.69 3.35 -2.38 1.7 0 0 Z " fill="#D4D4D4" transform="translate(371,55)"/>
<path d="M0 0 C2.91517292 1.07401108 4.77810176 1.77810176 7 4 C1.25 4.125 1.25 4.125 -1 3 C-0.67 2.01 -0.34 1.02 0 0 Z " fill="#E5E5E5" transform="translate(254,923)"/>
<path d="M0 0 C0.66 0.66 1.32 1.32 2 2 C0 4 -2 6 -4 8 C-4.33 7.01 -4.66 6.02 -5 5 C-3.35 3.35 -1.7 1.7 0 0 Z " fill="#131313" transform="translate(565,862)"/>
<path d="M0 0 C0.99 0.33 1.98 0.66 3 1 C2 3 2 3 0 4 C-0.65555119 6.52733235 -0.65555119 6.52733235 -1 9 C-1.33 9 -1.66 9 -2 9 C-2 6.36 -2 3.72 -2 1 C-1.34 0.67 -0.68 0.34 0 0 Z " fill="#232323" transform="translate(178,685)"/>
<path d="M0 0 C0.66 0.33 1.32 0.66 2 1 C2.1875 3.375 2.1875 3.375 2 6 C1.01 6.66 0.02 7.32 -1 8 C-0.67 5.36 -0.34 2.72 0 0 Z " fill="#D9D9D9" transform="translate(734,683)"/>
<path d="M0 0 C0.99 0.33 1.98 0.66 3 1 C2.34 3.64 1.68 6.28 1 9 C0.67 9 0.34 9 0 9 C0 6.03 0 3.06 0 0 Z " fill="#ECECEC" transform="translate(0,680)"/>
<path d="M0 0 C0.66 0.33 1.32 0.66 2 1 C2.59355614 3.64860427 2.74209269 6.29197322 3 9 C0.86928411 6.40608501 -0.53582673 4.36525621 -1 1 C-0.67 0.67 -0.34 0.34 0 0 Z " fill="#181818" transform="translate(570,657)"/>
<path d="M0 0 C0.66 0.66 1.32 1.32 2 2 C1.625 5.125 1.625 5.125 1 8 C0.34 8 -0.32 8 -1 8 C-1.125 2.25 -1.125 2.25 0 0 Z " fill="#EBEBEB" transform="translate(185,640)"/>
<path d="M0 0 C0.66 0.99 1.32 1.98 2 3 C1.21069203 5.48935591 0.1651105 7.669779 -1 10 C-1.66 10 -2.32 10 -3 10 C-2.01 6.7 -1.02 3.4 0 0 Z " fill="#323232" transform="translate(188,640)"/>
<path d="M0 0 C1.65 1.65 3.3 3.3 5 5 C3.68 5 2.36 5 1 5 C1 4.34 1 3.68 1 3 C0.34 3 -0.32 3 -1 3 C-0.67 2.01 -0.34 1.02 0 0 Z " fill="#151515" transform="translate(723,618)"/>
<path d="M0 0 C0.99 0.495 0.99 0.495 2 1 C2 1.66 2 2.32 2 3 C2.66 3.33 3.32 3.66 4 4 C3.01 5.32 2.02 6.64 1 8 C0 7 0 7 -0.0625 3.4375 C-0.041875 2.303125 -0.02125 1.16875 0 0 Z " fill="#C3C3C3" transform="translate(552,564)"/>
<path d="M0 0 C4.455 0.99 4.455 0.99 9 2 C8.01 2.99 7.02 3.98 6 5 C3.98079663 3.69593116 1.98075027 2.36176581 0 1 C0 0.67 0 0.34 0 0 Z " fill="#161616" transform="translate(286,521)"/>
<path d="M0 0 C0.99 0.33 1.98 0.66 3 1 C3.6875 3.0625 3.6875 3.0625 4 5 C3.01 5 2.02 5 1 5 C-0.6875 3 -0.6875 3 -2 1 C-1.34 0.67 -0.68 0.34 0 0 Z " fill="#2A2A2A" transform="translate(203,522)"/>
<path d="M0 0 C1.65 1.65 3.3 3.3 5 5 C4.01 6.485 4.01 6.485 3 8 C2.566875 7.0409375 2.566875 7.0409375 2.125 6.0625 C1.17176549 3.84793921 1.17176549 3.84793921 -1 3 C-0.67 2.01 -0.34 1.02 0 0 Z " fill="#EBEBEB" transform="translate(185,507)"/>
<path d="M0 0 C1.64826111 2.96687001 2.44271087 5.65626525 3 9 C1.68 8.34 0.36 7.68 -1 7 C-0.67 4.69 -0.34 2.38 0 0 Z " fill="#D0D0D0" transform="translate(499,381)"/>
<path d="M0 0 C0.66 0 1.32 0 2 0 C1.49287967 3.71888239 0.88391785 6.73454239 -1 10 C-1.33 8.02 -1.66 6.04 -2 4 C-1.01 3.67 -0.02 3.34 1 3 C0.67 2.01 0.34 1.02 0 0 Z " fill="#D1D1D1" transform="translate(124,242)"/>
<path d="M0 0 C-1.98 0.99 -1.98 0.99 -4 2 C-5.32 1.01 -6.64 0.02 -8 -1 C-4.37673261 -2.2077558 -3.35853631 -1.54311128 0 0 Z " fill="#D9D9D9" transform="translate(534,75)"/>
<path d="M0 0 C-2.38573379 1.89213369 -4.07175348 3.02391783 -7 4 C-6.6875 2.0625 -6.6875 2.0625 -6 0 C-3 -1 -3 -1 0 0 Z " fill="#141414" transform="translate(382,49)"/>
<path d="M0 0 C0.99 0.33 1.98 0.66 3 1 C1.35 2.65 -0.3 4.3 -2 6 C-2 4.35 -2 2.7 -2 1 C-1.34 0.67 -0.68 0.34 0 0 Z " fill="#E5E5E5" transform="translate(486,36)"/>
</svg>
