<?xml version="1.0" encoding="UTF-8"?><svg id="a" xmlns="http://www.w3.org/2000/svg" viewBox="0 0 800 600.7"><path d="M474.21,283.02c7.07,3.24,13.14,5.62,18.83,8.71,21.34,11.59,35.44,28.86,39.66,53.14,4.24,24.35-3.97,44.43-21.99,60.94-2.7,2.48-4.74,5.7-6.99,8.65-6.16,8.1-12.08,16.4-18.51,24.28-1.98,2.43-2.5,4.15-1.36,6.99,5.14,12.86,13.22,21.69,27.6,24.92,10.59,2.38,20.84,6.7,30.85,11.07,9.26,4.04,9.48,10.87,1.04,16.55-15.39,10.36-32.55,16.09-50.87,18.03-5.33,.56-11.1-.19-16.28-1.67-12.77-3.64-25.32-8.05-37.96-12.17-.59-.19-1.15-.49-1.72-.76-13.18-6.38-13.96-15.03-2.02-23.5,3.84-2.72,7.91-5.11,11.81-7.74,1.28-.86,2.35-2.02,3.15-3.72-17.59,7.89-35.53,14.05-54.71,15.73-19.1,1.67-37.84-.43-56.87-6.83,2.76,7.9,7.4,13.09,13.88,16.63,10.86,5.95,21.81,11.74,32.72,17.61,.97,.52,1.92,1.09,2.81,1.72,7.34,5.17,7.3,12.64-.96,16.01-9.95,4.06-20.4,7.04-30.85,9.65-25.33,6.31-46.35-4.54-66.6-17.72-4.47-2.91-8.79-6.07-12.97-9.38-7.34-5.8-6.98-13.59,1.08-18.39,4.82-2.87,10.13-4.92,15.28-7.21,6.44-2.86,6.51-2.84,5.33-9.75-1.29-7.56-2.55-15.14-4.01-22.67-.28-1.44-1.17-2.94-2.19-4.02-13.68-14.41-22.17-31.37-25.52-50.97-.31-1.84-1.38-3.97-2.78-5.13-19.84-16.35-29.13-38.49-34.36-62.74-1.61-7.49-2.27-15.22-2.86-22.88-.56-7.16,1.78-8.2,8.34-5.46,13.11,5.49,26.42,10.49,39.66,15.65,1,.39,2.12,.55,3.2,.67,.75,.09,1.53-.07,2.52-.14,.61-3.49,1.05-6.89,1.84-10.2,.62-2.59,2.51-4.14,4.8-2.03,5.96,5.49,12.97,7.48,20.86,8.48,6.59,.84,12.94,3.5,19.45,5.16,1.67,.43,4.06,.89,5.22,.07,10.45-7.42,20.69-15.12,30.98-22.73-22.75-10.86-38.35-28.67-46.52-52.85-14.86-43.95,2.77-98.69,39.54-123.39,10.95-7.35,23.12-10.95,36.14-12.11,6.73-.6,13.51-.98,20.14-2.18,13.21-2.38,20.95-10.45,23.28-23.74,1.02-5.81,3.36-6.79,8.42-3.56,12.44,7.93,21.18,18.17,21.06,33.96,0,1.14,.88,2.76,1.85,3.36,19.33,11.97,29.51,30.05,33.87,51.63,2.26,11.2,4.2,22.66,4.42,34.03,.32,16.37,13.18,32.23,31.15,35.96,3.37,.7,6.77,1.28,10.18,1.81,7.08,1.11,12.47,4.3,14.18,11.76,1.68,7.32-1.35,13.73-7.02,17.21-8.02,4.91-16.92,8.66-25.83,11.79-12.93,4.55-26.34,7.27-40.22,5.57-4-.49-7.96-1.28-13.17-2.13Zm-192.35,115.92c3.96,18.24,13.53,33.78,29.17,45.09,28.99,20.97,61.22,28.37,96.31,20.67,30.09-6.61,55.59-21.48,74.61-45.99,17.03-21.94,24.05-46.6,16.99-74.3-.35-1.38,.53-3.08,.84-4.63,1.29,.88,2.98,1.49,3.8,2.69,7.1,10.43,12.26,21.56,11.26,35.15,.59-.77,.92-1.08,1.09-1.46,.31-.71,.56-1.45,.77-2.19,6.74-23.59-.1-43.33-17.42-59.81-12.18-11.6-27.61-17.03-43.44-21.32-2.6-.7-5.92-.46-8.45,.52-19.55,7.56-39.75,10.06-60.58,8.83-2.71-.16-5.89,.45-8.19,1.82-16.2,9.6-31.96,19.86-45.41,33.09-10.61-6.41-21.63-10.82-33.83-11.22-13.38-.43-22.3,9.64-19.23,22.65,1.57,6.66,4.9,13.28,8.85,18.93,8.17,11.69,19.77,19.58,32.4,26.01,1.29,.66,2.11,2.23,3.15,3.37-1.43,.7-2.85,1.99-4.29,2.01-12.69,.16-25.38,.09-38.39,.09Zm168.83-123.85c-12.91-6.11-25.31-11.94-37.67-17.85-3.2-1.53-5.97-3.47-5.93-7.67,.04-4.26,2.92-6.17,6.22-7.4,14.61-5.44,26.44-14.57,37.06-25.91,10.5-11.21,23.43-17.19,40.74-13.17-2.14-12.78-3.4-24.95-6.31-36.71-4.69-19.03-15.25-33.84-33.89-41.95-.99-.43-1.67-2.87-1.55-4.29,.7-8.48,.99-16.8-4.8-24.6-4.67,13.02-13.44,20.91-26.29,23.85-5.63,1.29-11.46,1.95-17.23,2.3-15.33,.91-30.07,3.75-41.79,14.44-27.18,24.78-38.06,55.81-31.22,91.76,5.72,30.06,23.72,50.81,54.35,57.68,23.65,5.31,46.34-.07,68.33-10.47Zm-182.36,55.2c-8.99-3.17-17.63-6.21-26.12-9.2,3.9,29.58,20.88,60.83,44.89,65.02-15.51-15.68-26.6-32.62-18.77-55.81Zm236.58-57.75l.66-1.78c-1.99-.74-3.98-2.12-5.96-2.1-15.65,.14-29.69-5.77-44-10.97-5.03-1.83-10.67-1.96-16.03-2.86l-.4,2.18c21.25,7.89,41.49,19.89,65.74,15.53Zm-78.75-24.45c9.75-.2,18.7-5.42,26.45-13.36,4.28-4.38,8.64-8.77,13.43-12.55,7.9-6.23,16.67-7.68,26.03-3.12,.84,.41,1.8,.56,3.79,1.15-3.6-5-7.4-7.35-12.38-7.84-7.64-.75-14.29,1.73-20.02,6.56-4.32,3.64-8.06,8-12.54,11.42-8.39,6.39-17.13,12.32-24.75,17.75Zm89.12,8.63c-18.62,8.31-37.03,2.98-55.46-.66,18.41,4.85,36.81,10.69,55.46,.66Zm-198.7,232.56c-6.8-2.95-3.27-9.24-5.85-14.59,.13,7.07,.61,13.21-5.29,17.25,3.45-.82,6.89-1.65,11.14-2.66Zm142.93-11.73c2.02-1.11,4.45-2.44,6.21-3.41-1.22-2.98-2.33-5.7-3.13-7.64-.94,3.36-2.02,7.22-3.09,11.05Zm24.03,26.16c.02-.34,.04-.67,.06-1.01-6.15-1.72-12.3-3.43-18.46-5.15-.09,.34-.18,.67-.27,1.01,6.22,1.72,12.45,3.43,18.67,5.15Z"/><path d="M288.77,272.32c-32.86-39.67-26.56-115.48,8.49-161.53-15.89,24.36-24.62,51.22-26.92,79.97-2.31,28.93,3,56.45,18.43,81.56Z"/><path d="M487.92,87.47c-31.93-24.45-67.81-32.43-107.23-26.41,27.56-10.05,78.18-2.96,107.23,26.41Z"/><path d="M549.24,421.69c24.56-33.63,29.2-70.27,16.66-109.57,16.15,31.27,11.02,81.56-16.66,109.57Z"/><path d="M494.37,117.26c11.96,11.51,18.23,25.59,19.12,42.07-3.44-15.35-10.37-29.11-19.12-42.07Z"/><path d="M524.91,206.5c10.52,2.62,19.14,8.73,27.19,15.86-9.37-4.68-18.74-9.36-28.1-14.03,.31-.61,.61-1.22,.92-1.82Z"/><path d="M235.78,276.47c8.36,4.96,16.72,9.93,25.08,14.89l-1.21,1.97c-8.27-5.1-16.55-10.21-24.82-15.31,.32-.52,.64-1.04,.95-1.55Z"/><path d="M427.81,200.98c-.04,12.39-7.93,22.95-18.72,24.97-5.82,1.09-10.84-.73-15.15-4.58-11.68-10.43-12.5-30.14-1.79-41.58,7-7.48,18.03-8.06,25.83-1.37,6.28,5.38,9.87,13.63,9.84,22.55Zm-26.32-3.53c5.74-.05,11-5.38,11.07-11.24,.05-4.24-3.91-7.93-8.36-7.78-5.71,.19-10.92,5.38-10.95,10.91-.03,5.05,3.12,8.16,8.24,8.11Z"/></svg>